<?xml version="1.0" standalone="no"?>
<!DOCTYPE svg PUBLIC "-//W3C//DTD SVG 1.1//EN" "http://www.w3.org/Graphics/SVG/1.1/DTD/svg11.dtd" >
<svg xmlns="http://www.w3.org/2000/svg" xmlns:xlink="http://www.w3.org/1999/xlink" version="1.1">
<metadata>
Created by FontForge 20161116 at Fri Jan  1 01:00:00 1904
 By Jimmy Wärting
Copyright (c) 1989, 1990 Adobe Systems Incorporated.  All Rights Reserved.Trade Gothic is a trademark of Linotype AG and/or its subsidiaries.
</metadata>
<defs>
<font id="TradeGothicNo.20-CondBold" horiz-adv-x="444" >
  <font-face 
    font-family="TradeGothicNo.20-Condensed"
    font-weight="700"
    font-stretch="expanded"
    units-per-em="1000"
    panose-1="2 11 8 0 0 0 0 0 0 0"
    ascent="800"
    descent="-200"
    x-height="538"
    cap-height="722"
    bbox="-52 -236 1000 964"
    underline-thickness="50"
    underline-position="-100"
    unicode-range="U+0020-2122"
  />
<missing-glyph horiz-adv-x="502" 
d="M-1 0h500v500h-500v-500zM9 10v480h480v-480h-480z" />
    <glyph glyph-name=".notdef" horiz-adv-x="502" 
d="M-1 0h500v500h-500v-500zM9 10v480h480v-480h-480z" />
    <glyph glyph-name="space" unicode=" " horiz-adv-x="222" 
 />
    <glyph glyph-name="exclam" unicode="!" horiz-adv-x="278" 
d="M98 212h82l22 510h-126zM198 0v118h-118v-118h118z" />
    <glyph glyph-name="quotedbl" unicode="&#x22;" horiz-adv-x="333" 
d="M40 448h94v274h-94v-274zM199 448h94v274h-94v-274z" />
    <glyph glyph-name="numbersign" unicode="#" 
d="M408 292h-62l16 138h72v78h-64l25 214h-89l-25 -214h-81l25 214h-89l-25 -214h-76v-78h66l-15 -138h-76v-78h66l-25 -214h91l24 214h81l-25 -214h90l24 214h72v78zM272 430l-16 -138h-80l16 138h80z" />
    <glyph glyph-name="dollar" unicode="$" 
d="M192 722q-71 -9 -111.5 -61t-40.5 -124q0 -66 41.5 -115t110.5 -91v-235q-28 8 -48 30t-31 50l-83 -63q29 -46 71 -77t91 -36v-116h60v116q76 7 119 61.5t43 132.5q0 40 -12.5 72.5t-34.5 58.5t-49.5 47t-65.5 45v207q21 -5 34.5 -19.5t28.5 -38.5l76 65q-25 35 -61 59
t-78 32v88h-60v-88zM192 450q-25 23 -37.5 46t-12.5 54q0 26 13.5 46.5t36.5 27.5v-174zM252 293q29 -26 42.5 -48t13.5 -56q0 -71 -56 -93v197z" />
    <glyph glyph-name="percent" unicode="%" horiz-adv-x="778" 
d="M50 558q0 -34 12.5 -63.5t35.5 -52.5t52.5 -35.5t63.5 -12.5t64 12.5t52.5 35.5t35 52.5t12.5 63.5t-12.5 64t-35 52.5t-52.5 35t-64 12.5t-63.5 -12.5t-52.5 -35t-35.5 -52.5t-12.5 -64zM130 558q0 34 25 59t59 25t59 -25t25 -59t-25 -59t-59 -25t-59 25t-25 59z
M480 164q0 34 25 59t59 25t59 -25t25 -59t-25 -59t-59 -25t-59 25t-25 59zM400 164q0 -34 12.5 -63.5t35.5 -52.5t52.5 -35.5t63.5 -12.5t64 12.5t52.5 35.5t35 52.5t12.5 63.5t-12.5 64t-35 52.5t-52.5 35t-64 12.5t-63.5 -12.5t-52.5 -35t-35.5 -52.5t-12.5 -64zM557 732
l-409 -742h75l409 742h-75z" />
    <glyph glyph-name="ampersand" unicode="&#x26;" horiz-adv-x="556" 
d="M192 589q0 71 49 71q23 0 34 -18.5t11 -59.5q0 -34 -16 -64.5t-44 -67.5q-15 38 -24.5 72.5t-9.5 66.5zM404 350q-10 -46 -44 -134q-51 65 -90 147l13 14q55 60 83 105t28 100q0 68 -39.5 109t-107.5 41q-75 0 -116 -47t-41 -123q0 -42 16 -93t41 -106q-41 -45 -68 -98
t-27 -106q0 -75 47.5 -122t125.5 -47q46 0 78.5 13t63.5 42q58 -54 140 -55v110q-38 6 -69 34l10 24q23 53 36.5 90t21.5 75zM166 175q0 27 6.5 44.5t24.5 44.5q33 -66 99 -145q-14 -12 -26.5 -16.5t-30.5 -4.5q-32 0 -52.5 22.5t-20.5 54.5z" />
    <glyph glyph-name="quotesingle" unicode="'" horiz-adv-x="222" 
d="M64 448h94v274h-94v-274z" />
    <glyph glyph-name="parenleft" unicode="(" horiz-adv-x="278" 
d="M150 732q-55 -87 -86.5 -193.5t-31.5 -215.5t31.5 -215.5t86.5 -193.5h96q-57 88 -87.5 193t-30.5 216t30.5 216t87.5 193h-96z" />
    <glyph glyph-name="parenright" unicode=")" horiz-adv-x="278" 
d="M32 732q57 -88 87.5 -193t30.5 -216t-30.5 -216t-87.5 -193h96q56 87 87 193.5t31 215.5t-31 215.5t-87 193.5h-96z" />
    <glyph glyph-name="asterisk" unicode="*" 
d="M372 645q-60 -36 -127 -67q5 64 24 144h-94q19 -80 24 -144q-67 31 -127 67l-30 -89q37 -1 107 -11q37 -5 44 -6q-64 -69 -111 -107l79 -55q13 37 47 109q9 21 14 31q5 -10 14 -31q34 -72 47 -109l79 55q-47 38 -111 107q7 1 44 6q70 10 107 11z" />
    <glyph glyph-name="plus" unicode="+" horiz-adv-x="600" 
d="M251 302h-204v-98h204v-204h98v204h204v98h-204v204h-98v-204z" />
    <glyph glyph-name="comma" unicode="," horiz-adv-x="222" 
d="M170 118h-118v-118h45l-49 -124h53l69 124v118z" />
    <glyph glyph-name="hyphen" unicode="-" horiz-adv-x="333" 
d="M289 223v92h-245v-92h245z" />
    <glyph glyph-name="period" unicode="." horiz-adv-x="222" 
d="M170 0v118h-118v-118h118z" />
    <glyph glyph-name="slash" unicode="/" horiz-adv-x="278" 
d="M-21 -10h98l222 742h-98z" />
    <glyph glyph-name="zero" unicode="0" 
d="M280 157q0 -69 -58 -69t-58 69v408q0 69 58 69t58 -69v-408zM46 188q0 -103 42 -150.5t134 -47.5t134 47.5t42 150.5v346q0 103 -42 150.5t-134 47.5t-134 -47.5t-42 -150.5v-346z" />
    <glyph glyph-name="one" unicode="1" 
d="M177 0h112v732h-63q-53 -45 -147 -93v-67h98v-572z" />
    <glyph glyph-name="two" unicode="2" 
d="M389 0v102h-219q73 103 118 173t69.5 120.5t33.5 91t9 85.5q0 65 -47 112.5t-121 47.5q-85 0 -134.5 -53t-49.5 -135v-34h118v49q0 34 15.5 54.5t44.5 20.5q27 0 41.5 -20t14.5 -62q0 -73 -51 -164.5t-187 -290.5v-97h345z" />
    <glyph glyph-name="three" unicode="3" 
d="M46 209v-43q0 -90 42.5 -133t122.5 -43q92 0 136 52t44 160q0 76 -18 113.5t-71 65.5q46 25 62 62t16 104q0 77 -42.5 131t-118.5 54q-79 0 -124 -46.5t-45 -121.5v-34h112v30q0 41 14 57.5t42 16.5q27 0 38.5 -22t11.5 -74q0 -63 -22.5 -86.5t-78.5 -23.5v-98
q58 0 82 -22.5t24 -79.5v-55q0 -43 -15.5 -64t-43.5 -21q-56 0 -56 72v49h-112z" />
    <glyph glyph-name="four" unicode="4" 
d="M111 266l121 282h2v-282h-123zM232 0h114v174h66v92h-66v456h-120l-210 -456v-92h216v-174z" />
    <glyph glyph-name="five" unicode="5" 
d="M50 209v-55q0 -85 48.5 -124.5t129.5 -39.5q89 0 128.5 54t39.5 170v100q0 94 -31.5 142t-100.5 48q-32 0 -52.5 -8t-42.5 -34l-2 2l7 156h195l4 102h-301q0 -92 -1.5 -156.5t-5.5 -152.5q-1 -36 -2 -62h96q9 26 25 40.5t42 14.5q23 0 37.5 -16.5t14.5 -49.5v-164
q0 -47 -15.5 -67.5t-45.5 -20.5q-25 0 -40 17t-15 46v58h-112z" />
    <glyph glyph-name="six" unicode="6" 
d="M383 528v44q0 70 -44 115t-117 45q-92 0 -134 -47.5t-42 -150.5v-346q0 -103 42 -150.5t134 -47.5q93 0 134.5 52.5t41.5 167.5v86q0 75 -36.5 111.5t-95.5 36.5q-35 0 -55 -10.5t-47 -37.5v169q0 69 58 69q53 0 53 -69v-37h108zM164 313q17 14 33.5 23.5t30.5 9.5
q24 0 38 -17.5t14 -51.5v-120q0 -69 -58 -69t-58 69v156z" />
    <glyph glyph-name="seven" unicode="7" 
d="M263 620l-145 -620h117l147 652v70h-326v-102h207z" />
    <glyph glyph-name="eight" unicode="8" 
d="M46 200q0 -102 44.5 -156t131.5 -54t131.5 54t44.5 156q0 71 -15.5 114t-59.5 71q32 23 48.5 61.5t16.5 82.5q0 102 -43.5 152.5t-122.5 50.5t-122.5 -50.5t-43.5 -152.5q0 -44 16.5 -82.5t48.5 -61.5q-43 -28 -59 -71t-16 -114zM222 88q-34 0 -49 30.5t-15 89.5t15 89.5
t49 30.5q35 0 49.5 -30.5t14.5 -89.5t-14.5 -89.5t-49.5 -30.5zM222 436q-28 0 -41 23.5t-13 75.5q0 53 13 76t41 23t41 -23t13 -76q0 -52 -13 -75.5t-41 -23.5z" />
    <glyph glyph-name="nine" unicode="9" 
d="M61 194v-44q0 -69 44 -114.5t117 -45.5q92 0 134 47.5t42 150.5v346q0 103 -42 150.5t-134 47.5t-134 -52.5t-42 -167.5v-86q0 -75 37 -111.5t95 -36.5q35 0 55 10.5t47 37.5v-169q0 -69 -58 -69q-53 0 -53 69v37h-108zM280 409q-17 -14 -33 -23.5t-31 -9.5
q-24 0 -38 17.5t-14 51.5v120q0 69 58 69t58 -69v-156z" />
    <glyph glyph-name="colon" unicode=":" horiz-adv-x="222" 
d="M170 0v118h-118v-118h118zM170 278v118h-118v-118h118z" />
    <glyph glyph-name="semicolon" unicode=";" horiz-adv-x="222" 
d="M170 118h-118v-118h45l-49 -124h53l69 124v118zM170 278v118h-118v-118h118z" />
    <glyph glyph-name="less" unicode="&#x3c;" horiz-adv-x="600" 
d="M553 104l-365 149l365 149v104l-506 -211v-84l506 -211v104z" />
    <glyph glyph-name="equal" unicode="=" horiz-adv-x="600" 
d="M553 406h-506v-98h506v98zM553 198h-506v-98h506v98z" />
    <glyph glyph-name="greater" unicode="&#x3e;" horiz-adv-x="600" 
d="M47 0l506 211v84l-506 211v-104l365 -149l-365 -149v-104z" />
    <glyph glyph-name="question" unicode="?" horiz-adv-x="389" 
d="M233 212v54q0 59 16 97.5t46 79.5l6 8q28 39 42 70t14 77q0 57 -43 95.5t-101 38.5q-70 0 -113.5 -32.5t-67.5 -99.5l96 -36q8 32 25.5 54t45.5 22q18 0 30 -13t12 -32q0 -21 -10.5 -45t-30.5 -61q-7 -13 -11 -20q-24 -45 -38 -85.5t-14 -87.5v-84h96zM242 0v118h-118
v-118h118z" />
    <glyph glyph-name="at" unicode="@" horiz-adv-x="800" 
d="M369 233q-35 0 -56.5 25.5t-21.5 63.5q0 25 9 51.5t26 48.5t40 35.5t49 13.5q34 0 55.5 -25t21.5 -62q0 -25 -9 -52t-25.5 -49.5t-39.5 -36t-49 -13.5zM523 496q-40 65 -117 65q-47 0 -87 -21t-68.5 -57t-44 -81.5t-15.5 -92.5q0 -33 12 -63.5t33.5 -53.5t50 -36
t59.5 -13q29 0 57.5 15.5t50.5 39.5l2 -1q1 -26 17 -40t40 -14q30 0 72 17t82 52t66.5 90t26.5 127q0 66 -27.5 122.5t-76.5 97t-111 62t-129 21.5q-77 0 -145.5 -27.5t-120.5 -77.5t-81 -118.5t-29 -147.5q0 -82 29 -150.5t81.5 -118t122 -76t148.5 -26.5q93 0 172 42
t130 119h-83q-40 -40 -95.5 -61.5t-117.5 -21.5q-64 0 -118.5 21t-94.5 60.5t-62 93t-22 116.5t20.5 117t58 94t90.5 62t116 22q57 0 105.5 -16t83.5 -47q78 -67 78 -183q0 -39 -10 -72t-27 -58.5t-37.5 -39t-41.5 -13.5q-9 0 -12.5 7t-3.5 20q0 12 6 35q1 3 1 4l63 257h-81
z" />
    <glyph glyph-name="A" unicode="A" 
d="M221 578h2l49 -310h-100zM154 160h136l22 -160h120l-133 722h-154l-133 -722h120z" />
    <glyph glyph-name="B" unicode="B" horiz-adv-x="500" 
d="M184 324h40q55 0 78.5 -27t23.5 -84q0 -56 -21 -83.5t-69 -27.5h-52v222zM184 620h47q81 0 81 -102q0 -44 -23 -68t-60 -24h-45v194zM60 0h196q100 0 147 56.5t47 152.5q0 67 -25.5 108t-74.5 63q43 17 64.5 59t21.5 92q0 94 -47 142.5t-145 48.5h-184v-722z" />
    <glyph glyph-name="C" unicode="C" horiz-adv-x="500" 
d="M434 481v53q0 86 -47.5 142t-136.5 56q-93 0 -141.5 -52t-48.5 -133v-372q0 -81 48.5 -133t141.5 -52q89 0 136.5 52t47.5 133v83h-124v-87q0 -37 -13.5 -55t-46.5 -18q-36 0 -51 19t-15 61v366q0 42 15 61t51 19q26 0 43 -22t17 -65v-56h124z" />
    <glyph glyph-name="D" unicode="D" horiz-adv-x="500" 
d="M184 620h43q50 0 69.5 -22t19.5 -79v-316q0 -57 -19.5 -79t-69.5 -22h-43v518zM60 0h184q97 0 146.5 54t49.5 164v286q0 110 -49.5 164t-146.5 54h-184v-722z" />
    <glyph glyph-name="E" unicode="E" 
d="M406 0v108h-222v212h160v108h-160v186h208v108h-332v-722h346z" />
    <glyph glyph-name="F" unicode="F" 
d="M184 0v320h166v108h-166v186h222v108h-346v-722h124z" />
    <glyph glyph-name="G" unicode="G" horiz-adv-x="500" 
d="M231 268h79v-70q0 -54 -15.5 -77t-52.5 -23q-31 0 -44.5 20t-13.5 56v371q0 43 15 61t40 18q38 0 54.5 -29t16.5 -107h118v46q0 86 -48.5 142t-137.5 56q-88 0 -135 -52t-47 -133v-372q0 -85 45.5 -135t120.5 -50q42 0 69 14.5t56 49.5l23 -54h60v366h-203v-98z" />
    <glyph glyph-name="H" unicode="H" horiz-adv-x="500" 
d="M184 0v320h132v-320h124v722h-124v-294h-132v294h-124v-722h124z" />
    <glyph glyph-name="I" unicode="I" horiz-adv-x="278" 
d="M201 0v722h-124v-722h124z" />
    <glyph glyph-name="J" unicode="J" horiz-adv-x="278" 
d="M3 -10h41q97 0 135.5 39.5t38.5 114.5v578h-124v-564q0 -31 -15 -45.5t-50 -14.5h-26v-108z" />
    <glyph glyph-name="K" unicode="K" 
d="M178 0v256l44 80h2l101 -336h126l-151 453l134 269h-124l-130 -267h-2v267h-124v-722h124z" />
    <glyph glyph-name="L" unicode="L" horiz-adv-x="389" 
d="M373 0v108h-195v614h-124v-722h319z" />
    <glyph glyph-name="M" unicode="M" horiz-adv-x="611" 
d="M394 722l-88 -422h-2l-88 422h-163v-722h108v564h2l112 -564h60l112 564h2v-564h108v722h-163z" />
    <glyph glyph-name="N" unicode="N" horiz-adv-x="500" 
d="M172 0v451h2l158 -451h108v722h-112v-413h-2l-151 413h-115v-722h112z" />
    <glyph glyph-name="O" unicode="O" horiz-adv-x="500" 
d="M60 175q0 -81 48.5 -133t141.5 -52t141.5 52t48.5 133v372q0 81 -48.5 133t-141.5 52t-141.5 -52t-48.5 -133v-372zM184 544q0 42 15 61t51 19q37 0 51.5 -19t14.5 -61v-366q0 -42 -14.5 -61t-51.5 -19q-36 0 -51 19t-15 61v366z" />
    <glyph glyph-name="P" unicode="P" horiz-adv-x="500" 
d="M184 620h48q61 0 83.5 -23.5t22.5 -87.5t-22.5 -87.5t-83.5 -23.5h-48v222zM184 0v296h54q116 0 170 49.5t54 163.5t-54 163.5t-170 49.5h-178v-722h124z" />
    <glyph glyph-name="Q" unicode="Q" horiz-adv-x="500" 
d="M477 54q-13 1 -26 6.5t-32 21.5q21 41 21 93v372q0 81 -48.5 133t-141.5 52t-141.5 -52t-48.5 -133v-372q0 -81 48.5 -133t141.5 -52q60 0 101 23q30 -41 58.5 -54t67.5 -13v108zM259 148q1 0 2 -1q8 -7 15 -14.5t16 -23.5q-14 -11 -42 -11q-36 0 -51 19t-15 61v366
q0 42 15 61t51 19q37 0 51.5 -19t14.5 -61v-330q-15 17 -27.5 26t-27.5 17q-1 0 -2 1v-110z" />
    <glyph glyph-name="R" unicode="R" horiz-adv-x="500" 
d="M184 620h44q51 0 71.5 -23.5t20.5 -87.5q0 -63 -20.5 -87t-71.5 -24h-44v222zM184 296q16 0 34.5 1t29.5 2l88 -299h126l-105 327q38 17 62.5 60t24.5 122q0 113 -51.5 163t-158.5 50h-174v-722h124v296z" />
    <glyph glyph-name="S" unicode="S" 
d="M404 557q-8 79 -53 127t-119 48q-91 0 -141.5 -47t-50.5 -133q0 -40 12 -74t32 -60.5t42 -47.5t57 -51q56 -46 82.5 -78.5t26.5 -76.5q0 -32 -19.5 -49t-52.5 -17q-31 0 -50.5 28t-23.5 81l-118 -17q4 -85 53.5 -142.5t132.5 -57.5q89 0 142.5 49t53.5 136
q0 39 -12.5 72.5t-33.5 61.5t-43.5 49.5t-58.5 51.5q-53 46 -78.5 76.5t-25.5 66.5q0 71 62 71q25 0 44 -18.5t22 -61.5z" />
    <glyph glyph-name="T" unicode="T" horiz-adv-x="389" 
d="M132 0h124v614h120v108h-364v-108h120v-614z" />
    <glyph glyph-name="U" unicode="U" horiz-adv-x="500" 
d="M60 182q0 -92 50.5 -142t139.5 -50t139.5 50t50.5 142v540h-124v-545q0 -79 -66 -79t-66 79v545h-124v-540z" />
    <glyph glyph-name="V" unicode="V" 
d="M223 221h-2l-90 501h-122l151 -722h124l151 722h-122z" />
    <glyph glyph-name="W" unicode="W" horiz-adv-x="667" 
d="M194 262h-2l-76 460h-116l137 -722h104l84 477h2l90 -477h104l127 722h-116l-69 -460h-2l-84 460h-102z" />
    <glyph glyph-name="X" unicode="X" 
d="M14 0h122l86 263h2l84 -263h122l-140 378l125 344h-122l-69 -229h-2l-76 229h-122l132 -344z" />
    <glyph glyph-name="Y" unicode="Y" 
d="M284 300l150 422h-126l-83 -275h-2l-87 275h-126l150 -422v-300h124v300z" />
    <glyph glyph-name="Z" unicode="Z" 
d="M275 614l-231 -496v-118h356v108h-228l228 496v118h-328v-108h203z" />
    <glyph glyph-name="bracketleft" unicode="[" horiz-adv-x="278" 
d="M250 722h-214v-798h214v48h-118v702h118v48z" />
    <glyph glyph-name="backslash" unicode="\" horiz-adv-x="278" 
d="M77 732h-98l222 -742h98z" />
    <glyph glyph-name="bracketright" unicode="]" horiz-adv-x="278" 
d="M28 674h118v-702h-118v-48h214v798h-214v-48z" />
    <glyph glyph-name="asciicircum" unicode="^" horiz-adv-x="600" 
d="M163 302l136 302l136 -302h109l-190 420h-108l-190 -420h107z" />
    <glyph glyph-name="underscore" unicode="_" horiz-adv-x="500" 
d="M500 -125v50h-500v-50h500z" />
    <glyph glyph-name="grave" unicode="`" horiz-adv-x="222" 
d="M99 602h83l-79 144h-135z" />
    <glyph glyph-name="a" unicode="a" 
d="M154 380q2 38 15 57t49 19q55 0 55 -69v-32q-125 -47 -182 -102.5t-57 -141.5q0 -54 29.5 -87.5t84.5 -33.5q39 0 68 12.5t63 39.5q1 -7 3 -19q3 -15 3 -23h107l-1 5q-6 37 -6 52v345q0 73 -42 109.5t-121 36.5q-80 0 -128 -43.5t-52 -124.5h112zM273 132
q-16 -23 -34.5 -36.5t-40.5 -13.5q-52 0 -52 49q0 37 26.5 68.5t100.5 73.5v-141z" />
    <glyph glyph-name="b" unicode="b" 
d="M160 0v56h2q29 -37 54.5 -51.5t65.5 -14.5q53 0 83.5 38.5t30.5 111.5v258q0 73 -30.5 111.5t-83.5 38.5q-33 0 -54.5 -11.5t-57.5 -41.5l-4 -3v230h-112v-722h106zM166 428q39 28 64 28t39.5 -19t14.5 -68v-200q0 -49 -14.5 -68t-39.5 -19t-64 28v318z" />
    <glyph glyph-name="c" unicode="c" 
d="M396 354q-2 92 -43 143t-131 51q-91 0 -132.5 -53t-41.5 -147v-158q0 -94 41.5 -147t132.5 -53t132.5 53t41.5 147v14h-112v-34q0 -46 -15.5 -67t-46.5 -21t-46.5 21t-15.5 67v198q0 46 15.5 67t46.5 21t46.5 -21t15.5 -67v-14h112z" />
    <glyph glyph-name="d" unicode="d" 
d="M390 0v722h-112v-230l-4 3q-37 30 -58 41.5t-54 11.5q-53 0 -83.5 -38.5t-30.5 -111.5v-258q0 -73 30.5 -111.5t83.5 -38.5q40 0 65.5 14.5t54.5 51.5h2v-56h106zM278 110q-38 -28 -64 -28q-25 0 -39.5 19t-14.5 68v200q0 49 14.5 68t39.5 19q26 0 64 -28v-318z" />
    <glyph glyph-name="e" unicode="e" 
d="M160 340v28q0 46 15.5 67t46.5 21t46.5 -21t15.5 -67v-28h-124zM396 348q0 94 -41.5 147t-132.5 53t-132.5 -53t-41.5 -147v-158q0 -94 41.5 -147t132.5 -53q90 0 131 50.5t43 141.5h-112v-12q0 -46 -15.5 -67t-46.5 -21t-46.5 21t-15.5 67v78h236v100z" />
    <glyph glyph-name="f" unicode="f" horiz-adv-x="278" 
d="M76 0h112v446h64v92h-64v66q0 20 8.5 28t28.5 8h32v92h-56q-60 0 -92.5 -31.5t-32.5 -95.5v-67h-66v-92h66v-446z" />
    <glyph glyph-name="g" unicode="g" 
d="M426 548q-34 0 -51 -11.5t-41 -46.5q-49 58 -124 58q-95 0 -134.5 -44t-39.5 -154q0 -48 3.5 -78.5t11.5 -50.5t21 -34t36 -30q-27 -15 -47.5 -38.5t-20.5 -48.5t13.5 -41.5t37.5 -26.5v-2q-30 -7 -51.5 -30.5t-21.5 -53.5q0 -42 46.5 -64t131.5 -22q112 0 171 30.5
t59 97.5q0 42 -17 67t-45 37t-58 15t-74 5q-49 2 -71.5 7t-22.5 24q0 20 22 25h36q89 0 129.5 48.5t40.5 167.5q0 18 -3 41.5t-9 43.5q21 17 54 17q12 0 18 -1v93zM231 -90q-55 0 -75 9t-20 31t20 31t75 9t75 -9t20 -31t-20 -31t-75 -9zM198 230q-29 0 -42.5 24t-13.5 89
t13.5 89t42.5 24q33 0 44.5 -22.5t11.5 -90.5t-11.5 -90.5t-44.5 -22.5z" />
    <glyph glyph-name="h" unicode="h" 
d="M166 0v422q24 17 40 25.5t32 8.5q40 0 40 -39v-417h112v435q0 53 -25 83t-69 30q-42 0 -65.5 -12t-58.5 -43q-2 -2 -6 -5v234h-112v-722h112z" />
    <glyph glyph-name="i" unicode="i" horiz-adv-x="222" 
d="M167 0v538h-112v-538h112zM167 620v102h-112v-102h112z" />
    <glyph glyph-name="j" unicode="j" horiz-adv-x="222" 
d="M0 -170h43q58 0 94 32t36 107v568h-112v-563q0 -19 -10 -30.5t-32 -11.5h-19v-102zM173 620v102h-112v-102h112z" />
    <glyph glyph-name="k" unicode="k" 
d="M411 538h-120l-123 -190h-2v374h-112v-722h112v188l53 79h2l90 -267h113l-130 368z" />
    <glyph glyph-name="l" unicode="l" horiz-adv-x="222" 
d="M167 0v722h-112v-722h112z" />
    <glyph glyph-name="m" unicode="m" horiz-adv-x="667" 
d="M389 0v422q22 17 38.5 25.5t32.5 8.5q18 0 29 -10t11 -29v-417h112v435q0 54 -26.5 83.5t-78.5 29.5q-32 0 -59 -13t-66 -51q-20 36 -39 50t-59 14q-34 0 -55.5 -12t-58.5 -44q-3 -2 -10 -8v54h-106v-538h112v422q24 17 40 25.5t32 8.5q18 0 28.5 -10t10.5 -29v-417h112z
" />
    <glyph glyph-name="n" unicode="n" 
d="M166 0v422q24 17 40 25.5t32 8.5q40 0 40 -39v-417h112v435q0 53 -25 83t-69 30q-42 0 -66.5 -12.5t-61.5 -44.5l-8 -7v54h-106v-538h112z" />
    <glyph glyph-name="o" unicode="o" 
d="M284 170q0 -46 -15.5 -67t-46.5 -21t-46.5 21t-15.5 67v198q0 46 15.5 67t46.5 21t46.5 -21t15.5 -67v-198zM48 190q0 -94 41.5 -147t132.5 -53t132.5 53t41.5 147v158q0 94 -41.5 147t-132.5 53t-132.5 -53t-41.5 -147v-158z" />
    <glyph glyph-name="p" unicode="p" 
d="M54 538v-708h112v216l4 -3q37 -30 58 -41.5t54 -11.5q53 0 83.5 38.5t30.5 111.5v258q0 73 -30.5 111.5t-83.5 38.5q-40 0 -65.5 -14.5t-54.5 -51.5h-2v56h-106zM166 428q39 28 64 28t39.5 -19t14.5 -68v-200q0 -49 -14.5 -68t-39.5 -19t-64 28v318z" />
    <glyph glyph-name="q" unicode="q" 
d="M284 538v-56h-2q-29 37 -54.5 51.5t-65.5 14.5q-53 0 -83.5 -38.5t-30.5 -111.5v-258q0 -73 30.5 -111.5t83.5 -38.5q33 0 54.5 11.5t57.5 41.5l4 3v-216h112v708h-106zM278 110q-38 -28 -64 -28q-25 0 -39.5 19t-14.5 68v200q0 49 14.5 68t39.5 19q26 0 64 -28v-318z
" />
    <glyph glyph-name="r" unicode="r" horiz-adv-x="333" 
d="M166 0v370q0 34 22 53t53 19q19 0 33 -2.5t32 -6.5l7 -2v117h-23q-40 0 -73.5 -19t-53.5 -54h-2v63h-107v-538h112z" />
    <glyph glyph-name="s" unicode="s" horiz-adv-x="389" 
d="M353 405q-13 65 -56.5 104t-107.5 39t-107 -40.5t-43 -103.5q0 -29 10.5 -54t27.5 -44.5t36 -35t49 -37.5q45 -32 66 -54t21 -50q0 -22 -14 -34.5t-36 -12.5q-35 0 -51.5 22.5t-22.5 62.5l-98 -27q13 -72 56 -111t115 -39q71 0 114 37.5t43 107.5q0 33 -11 60.5t-30 49.5
t-39.5 38.5t-49.5 37.5q-41 29 -60.5 48.5t-19.5 43.5q0 21 13.5 32t35.5 11q52 0 64 -67z" />
    <glyph glyph-name="t" unicode="t" horiz-adv-x="278" 
d="M72 446v-335q0 -61 33.5 -91t97.5 -30q20 0 32 1.5t24 4.5v96h-37q-38 0 -38 44v310h75v92h-75v145h-112v-145h-62v-92h62z" />
    <glyph glyph-name="u" unicode="u" 
d="M278 538v-422q-24 -17 -40 -25.5t-32 -8.5q-40 0 -40 39v417h-112v-435q0 -53 25 -83t69 -30q42 0 66.5 12.5t61.5 44.5l8 7v-54h106v538h-112z" />
    <glyph glyph-name="v" unicode="v" horiz-adv-x="389" 
d="M195 178h-2l-69 360h-114l130 -538h109l130 538h-114z" />
    <glyph glyph-name="w" unicode="w" horiz-adv-x="556" 
d="M165 202h-2l-49 336h-108l104 -538h90l73 340h2l61 -340h90l124 538h-108l-61 -336h-2l-60 335h-83z" />
    <glyph glyph-name="x" unicode="x" horiz-adv-x="389" 
d="M12 0h116l65 182h2l65 -182h116l-122 287l116 251h-116l-60 -150l-57 150h-116l111 -253z" />
    <glyph glyph-name="y" unicode="y" horiz-adv-x="389" 
d="M198 194h-2l-72 344h-114l117 -457q12 -45 12 -71q0 -45 -16.5 -66t-57.5 -21h-27v-92h47q65 0 100 28.5t53 100.5l141 578h-113z" />
    <glyph glyph-name="z" unicode="z" horiz-adv-x="389" 
d="M235 446l-205 -354v-92h329v92h-209l209 354v92h-315v-92h191z" />
    <glyph glyph-name="braceleft" unicode="{" horiz-adv-x="278" 
d="M0 296q24 0 40 -20t16 -60v-206q0 -50 23 -73t81 -23h110v48h-82q-19 0 -27.5 13t-8.5 37v194q0 31 -8 53t-20 35.5t-24.5 20t-23.5 8.5v3q10 1 23 8t25 20.5t20 35t8 50.5v194q0 24 8.5 37t27.5 13h82v48h-110q-58 0 -81 -23t-23 -73v-202q0 -40 -16 -60t-40 -20v-58z
" />
    <glyph glyph-name="bar" unicode="|" horiz-adv-x="222" 
d="M62 -10h98v742h-98v-742z" />
    <glyph glyph-name="braceright" unicode="}" horiz-adv-x="278" 
d="M278 350q-24 0 -40 20t-16 60v206q0 50 -23 73t-81 23h-110v-48h82q19 0 27.5 -13t8.5 -37v-194q0 -31 8 -53t20 -35.5t24.5 -20t23.5 -8.5v-3q-10 -1 -23 -8t-25 -20.5t-20 -35t-8 -50.5v-194q0 -24 -8.5 -37t-27.5 -13h-82v-48h110q58 0 81 23t23 73v202q0 40 16 60
t40 20v58z" />
    <glyph glyph-name="asciitilde" unicode="~" horiz-adv-x="600" 
d="M495 335q-23 -31 -42 -47.5t-46 -16.5q-20 0 -38.5 6t-47.5 19q-11 5 -16 7q-34 15 -61 23.5t-50 8.5q-42 0 -70 -19.5t-59 -54.5l-4 -4l44 -86q15 29 34.5 46.5t49.5 17.5q32 0 61.5 -8.5t53.5 -22.5q29 -16 53 -24.5t49 -8.5q34 0 58.5 15t55.5 45q14 14 19 18z" />
    <glyph glyph-name="quotesinglbase" unicode="&#x201a;" horiz-adv-x="222" 
d="M170 118h-118v-118h45l-49 -124h53l69 124v118z" />
    <glyph glyph-name="florin" unicode="&#x192;" 
d="M34 -165q20 -5 39 -5q58 0 94.5 34.5t57.5 101t32 159.5t19 237h106v84h-102q3 112 23 156t56 44q28 0 51 -13v94q-4 0 -13 2q-23 3 -34 3q-39 0 -71 -15t-57 -49t-41 -89t-20 -133h-100v-84h93q-10 -157 -17.5 -237t-17.5 -125t-25.5 -61.5t-43.5 -16.5q-19 0 -29 5v-92
z" />
    <glyph glyph-name="quotedblbase" unicode="&#x201e;" 
d="M374 118h-118v-118h45l-49 -124h53l69 124v118zM189 118h-118v-118h45l-49 -124h53l69 124v118z" />
    <glyph glyph-name="ellipsis" unicode="&#x2026;" horiz-adv-x="1000" 
d="M224 0v118h-114v-118h114zM557 0v118h-114v-118h114zM890 0v118h-114v-118h114z" />
    <glyph glyph-name="dagger" unicode="&#x2020;" horiz-adv-x="500" 
d="M434 574l-163 -42l39 200h-120l39 -200l-163 42v-124l167 42l-45 -169q14 -46 22.5 -137t20.5 -266h38q12 175 20.5 266t22.5 137l-45 169l167 -42v124z" />
    <glyph glyph-name="daggerdbl" unicode="&#x2021;" horiz-adv-x="500" 
d="M434 574l-163 -42l39 200h-120l39 -200l-163 42v-124l167 42l-45 -166l45 -166l-167 42v-124l163 42l-39 -200h120l-39 200l163 -42v124l-167 -42l45 166l-45 166l167 -42v124z" />
    <glyph glyph-name="circumflex" unicode="&#x2c6;" horiz-adv-x="222" 
d="M-40 602h92l59 89l59 -89h92l-96 144h-110z" />
    <glyph glyph-name="perthousand" unicode="&#x2030;" horiz-adv-x="1000" 
d="M14 572q0 -30 11.5 -57.5t32.5 -48.5t48.5 -32.5t57.5 -11.5q31 0 58 11.5t48 32.5t32.5 48.5t11.5 57.5q0 31 -11.5 58t-32.5 48t-48 32.5t-58 11.5q-30 0 -57.5 -11.5t-48.5 -32.5t-32.5 -48t-11.5 -58zM94 572q0 29 20.5 49.5t49.5 20.5t49.5 -20.5t20.5 -49.5
t-20.5 -49.5t-49.5 -20.5t-49.5 20.5t-20.5 49.5zM332 150q0 -30 11.5 -57.5t32.5 -48.5t48.5 -32.5t57.5 -11.5q31 0 58 11.5t48 32.5t32.5 48.5t11.5 57.5q0 31 -11.5 58t-32.5 48t-48 32.5t-58 11.5q-30 0 -57.5 -11.5t-48.5 -32.5t-32.5 -48t-11.5 -58zM412 150
q0 29 20.5 49.5t49.5 20.5t49.5 -20.5t20.5 -49.5t-20.5 -49.5t-49.5 -20.5t-49.5 20.5t-20.5 49.5zM686 150q0 -30 11.5 -57.5t32.5 -48.5t48.5 -32.5t57.5 -11.5q31 0 58 11.5t48 32.5t32.5 48.5t11.5 57.5q0 31 -11.5 58t-32.5 48t-48 32.5t-58 11.5q-30 0 -57.5 -11.5
t-48.5 -32.5t-32.5 -48t-11.5 -58zM766 150q0 29 20.5 49.5t49.5 20.5t49.5 -20.5t20.5 -49.5t-20.5 -49.5t-49.5 -20.5t-49.5 20.5t-20.5 49.5zM96 -10h70l411 742h-70z" />
    <glyph glyph-name="Scaron" unicode="&#x160;" 
d="M373 904h-92l-59 -89l-59 89h-92l96 -144h110zM404 557q-8 79 -53 127t-119 48q-91 0 -141.5 -47t-50.5 -133q0 -40 12 -74t32 -60.5t42 -47.5t57 -51q56 -46 82.5 -78.5t26.5 -76.5q0 -32 -19.5 -49t-52.5 -17q-31 0 -50.5 28t-23.5 81l-118 -17q4 -85 53.5 -142.5
t132.5 -57.5q89 0 142.5 49t53.5 136q0 39 -12.5 72.5t-33.5 61.5t-43.5 49.5t-58.5 51.5q-53 46 -78.5 76.5t-25.5 66.5q0 71 62 71q25 0 44 -18.5t22 -61.5z" />
    <glyph glyph-name="guilsinglleft" unicode="&#x2039;" horiz-adv-x="333" 
d="M160 269l117 154h-99l-115 -153l115 -155h96z" />
    <glyph glyph-name="OE" unicode="&#x152;" horiz-adv-x="722" 
d="M330 185q0 -39 -18 -57t-51 -18q-39 0 -58 25.5t-19 69.5v315q0 44 19 69.5t58 25.5q33 0 51 -18t18 -57v-355zM684 0v108h-230v212h168v108h-168v186h216v108h-400q-103 0 -156.5 -56.5t-53.5 -163.5v-282q0 -107 53.5 -163.5t156.5 -56.5h414z" />
    <glyph glyph-name="quoteleft" unicode="&#x2018;" horiz-adv-x="222" 
d="M52 490h118v118h-45l49 124h-53l-69 -124v-118z" />
    <glyph glyph-name="quoteright" unicode="&#x2019;" horiz-adv-x="222" 
d="M170 722h-118v-118h45l-49 -124h53l69 124v118z" />
    <glyph glyph-name="quotedblleft" unicode="&#x201c;" 
d="M70 490h118v118h-45l49 124h-53l-69 -124v-118zM255 490h118v118h-45l49 124h-53l-69 -124v-118z" />
    <glyph glyph-name="quotedblright" unicode="&#x201d;" 
d="M374 722h-118v-118h45l-49 -124h53l69 124v118zM189 722h-118v-118h45l-49 -124h53l69 124v118z" />
    <glyph glyph-name="bullet" unicode="&#x2022;" horiz-adv-x="500" 
d="M69 361q0 -37 14 -70t38.5 -58t57.5 -39t70 -14t70 14t58 39t39 58t14 70t-14 70t-39 57.5t-58 38.5t-70 14t-70 -14t-57.5 -38.5t-38.5 -57.5t-14 -70z" />
    <glyph glyph-name="endash" unicode="&#x2013;" horiz-adv-x="500" 
d="M500 233v72h-500v-72h500z" />
    <glyph glyph-name="emdash" unicode="&#x2014;" horiz-adv-x="1000" 
d="M1000 233v72h-1000v-72h1000z" />
    <glyph glyph-name="tilde" unicode="&#x2dc;" horiz-adv-x="222" 
d="M218 733q-1 -23 -10.5 -33.5t-31.5 -10.5q-17 0 -50 15q-7 4 -10 5l-3 1q-39 18 -62 18q-46 0 -69.5 -33t-33.5 -85h56q1 23 10.5 33.5t31.5 10.5t60 -19q40 -20 65 -20q46 0 69.5 33t33.5 85h-56z" />
    <glyph glyph-name="trademark" unicode="&#x2122;" horiz-adv-x="990" 
d="M559 722h-136v-412h92v302h2l110 -302h69l110 302h2v-302h92v412h-135l-103 -271zM370 722h-336v-75h120v-337h96v337h120v75z" />
    <glyph glyph-name="scaron" unicode="&#x161;" horiz-adv-x="389" 
d="M346 746h-92l-59 -89l-59 89h-92l96 -144h110zM353 405q-13 65 -56.5 104t-107.5 39t-107 -40.5t-43 -103.5q0 -29 10.5 -54t27.5 -44.5t36 -35t49 -37.5q45 -32 66 -54t21 -50q0 -22 -14 -34.5t-36 -12.5q-35 0 -51.5 22.5t-22.5 62.5l-98 -27q13 -72 56 -111t115 -39
q71 0 114 37.5t43 107.5q0 33 -11 60.5t-30 49.5t-39.5 38.5t-49.5 37.5q-41 29 -60.5 48.5t-19.5 43.5q0 21 13.5 32t35.5 11q52 0 64 -67z" />
    <glyph glyph-name="guilsinglright" unicode="&#x203a;" horiz-adv-x="333" 
d="M59 115h96l115 155l-115 153h-99l117 -154z" />
    <glyph glyph-name="oe" unicode="&#x153;" horiz-adv-x="667" 
d="M278 170q0 -45 -15 -66.5t-41 -21.5q-31 0 -46.5 21t-15.5 67v198q0 46 15.5 67t46.5 21q26 0 41 -21.5t15 -66.5v-198zM390 340v28q0 47 12.5 67.5t42.5 20.5q31 0 46.5 -21t15.5 -67v-28h-117zM619 248v100q0 93 -39.5 146.5t-122.5 53.5t-119 -61q-16 31 -46.5 46
t-81.5 15q-83 0 -122.5 -53.5t-39.5 -146.5v-158q0 -93 39.5 -146.5t122.5 -53.5q49 0 79.5 16t46.5 46q17 -30 47 -46t74 -16q82 0 121 51t41 141h-112v-12q0 -46 -15.5 -67t-46.5 -21q-30 0 -42.5 20.5t-12.5 67.5v78h229z" />
    <glyph glyph-name="Ydieresis" unicode="&#x178;" 
d="M355 772v108h-108v-108h108zM89 880v-108h108v108h-108zM284 300l150 422h-126l-83 -275h-2l-87 275h-126l150 -422v-300h124v300z" />
    <glyph glyph-name="exclamdown" unicode="&#xa1;" horiz-adv-x="278" 
d="M180 326h-82l-22 -510h126zM80 538v-118h118v118h-118z" />
    <glyph glyph-name="cent" unicode="&#xa2;" 
d="M158 148h-2q-1 3 -2 7q-4 16 -4 25v198q0 45 20 66.5t53 21.5q11 0 16 -1zM401 364q-1 60 -19.5 103.5t-58.5 66.5l41 150h-74l-35 -128q-20 2 -32 2q-96 0 -140.5 -53t-44.5 -147v-158q0 -60 18 -103.5t56 -67.5l-40 -145h75l33 120q17 -4 43 -4q97 0 140 53t43 147v14
h-112v-34q0 -45 -19 -66.5t-52 -21.5q-20 0 -32 8l91 337q15 -21 15 -59v-14h104z" />
    <glyph glyph-name="sterling" unicode="&#xa3;" 
d="M35 -10q28 3 53.5 15t56.5 33q28 -22 60 -35t68 -13q64 0 98.5 39.5t34.5 110.5v59h-100q0 -50 -10.5 -78.5t-40.5 -28.5q-36 0 -70 24q21 37 27 80t8 123h90v84h-99q-4 21 -12 61q-9 38 -13 62.5t-4 49.5q0 64 50 64q32 0 45.5 -22.5t16.5 -87.5h102q0 103 -39.5 152.5
t-121.5 49.5q-83 0 -124 -43t-41 -122q0 -27 7 -65.5t21 -98.5h-63v-84h77q0 -112 -15.5 -159.5t-61.5 -62.5v-107z" />
    <glyph glyph-name="currency" unicode="&#xa4;" 
d="M436 199l-47 46q37 52 37 116q0 65 -37 116l47 46l-50 53l-48 -48q-25 17 -55 26.5t-61 9.5q-65 0 -117 -36l-47 48l-50 -53l47 -46q-37 -51 -37 -116q0 -64 37 -116l-47 -46l50 -53l47 48q52 -36 117 -36q31 0 61 9.5t55 26.5l48 -48zM110 361q0 49 32.5 83t79.5 34
t79.5 -34t32.5 -83t-32.5 -83t-79.5 -34t-79.5 34t-32.5 83z" />
    <glyph glyph-name="yen" unicode="&#xa5;" 
d="M418 468h-87l91 254h-100l-97 -299h-2l-101 299h-100l91 -254h-87v-84h121l27 -80h-148v-84h148v-220h96v220h148v84h-148l27 80h121v84z" />
    <glyph glyph-name="brokenbar" unicode="&#xa6;" horiz-adv-x="222" 
d="M160 296h-98v-306h98v306zM160 732h-98v-306h98v306z" />
    <glyph glyph-name="section" unicode="&#xa7;" horiz-adv-x="500" 
d="M402 652q-25 35 -63 57.5t-82 22.5q-70 0 -107 -33.5t-37 -88.5q0 -67 50 -105q-50 -5 -80.5 -35t-30.5 -79q0 -48 36.5 -94.5t105.5 -111.5q54 -50 79 -80.5t25 -56.5q0 -25 -15.5 -37.5t-42.5 -12.5t-46 16.5t-33 43.5l-73 -57q43 -41 81 -61t89 -20q58 0 95 37.5
t37 96.5q0 35 -12 59t-38 49q50 2 79 35t29 83t-36.5 95t-105.5 106q-52 45 -76.5 73.5t-24.5 53.5q0 46 52 46q20 0 35.5 -12t34.5 -33l6 -7zM144 399q0 17 12 29.5t32 12.5q15 0 42.5 -21t57 -53t49 -59.5t19.5 -37.5q0 -18 -13.5 -31t-32.5 -13q-13 0 -40.5 21.5
t-56.5 53t-49 59.5t-20 39z" />
    <glyph glyph-name="dieresis" unicode="&#xa8;" horiz-adv-x="222" 
d="M244 614v108h-108v-108h108zM-22 722v-108h108v108h-108z" />
    <glyph glyph-name="copyright" unicode="&#xa9;" horiz-adv-x="800" 
d="M400 -10q75 0 144 26t122.5 75.5t83.5 118.5t30 151t-30.5 151t-83.5 118t-122 75.5t-144 26.5t-144 -26t-122 -75.5t-83.5 -118.5t-30.5 -151t30 -151t83.5 -118.5t122.5 -75.5t144 -26zM682 361q0 -63 -21.5 -117t-60.5 -93.5t-90.5 -61t-109.5 -21.5
q-59 0 -110.5 21.5t-90 61t-60 93.5t-21.5 117t21.5 117t60.5 93.5t90 61t110 21.5q58 0 109.5 -21.5t90.5 -61t60.5 -93.5t21.5 -117zM514 299q-4 -37 -31 -58t-69 -21q-52 0 -85 42t-33 103q0 64 30.5 102.5t85.5 38.5q40 0 67.5 -19.5t34.5 -56.5h78q-11 74 -60 114
t-120 40q-96 0 -153 -62t-57 -159q0 -46 15 -86.5t43 -70.5t67.5 -47t86.5 -17q68 0 118.5 42.5t62.5 114.5h-81z" />
    <glyph glyph-name="ordfeminine" unicode="&#xaa;" horiz-adv-x="266" 
d="M92 631q1 20 9.5 30.5t28.5 10.5q34 0 34 -37v-19q-78 -29 -114 -62.5t-36 -84.5q0 -33 19 -53t55 -20q26 0 45.5 6t39.5 21q0 -4 2 -10q2 -7 2 -11h70q-1 6 -1 7q-4 19 -4 27v208q0 88 -106 88q-54 0 -86.5 -26.5t-35.5 -74.5h78zM164 486q-6 -13 -17.5 -21.5
t-25.5 -8.5q-29 0 -29 26q0 22 14 38.5t58 38.5v-73z" />
    <glyph glyph-name="guillemotleft" unicode="&#xab;" horiz-adv-x="500" 
d="M160 269l117 154h-99l-115 -153l115 -155h96zM327 269l117 154h-99l-115 -153l115 -155h96z" />
    <glyph glyph-name="logicalnot" unicode="&#xac;" horiz-adv-x="600" 
d="M455 99h98v307h-506v-98h408v-209z" />
    <glyph glyph-name="minus" unicode="&#xad;" horiz-adv-x="600" 
d="M553 204v98h-506v-98h506z" />
    <glyph glyph-name="minus" unicode="&#x2212;" horiz-adv-x="600" 
d="M553 204v98h-506v-98h506z" />
    <glyph glyph-name="registered" unicode="&#xae;" horiz-adv-x="800" 
d="M334 331h52l93 -177h91l-100 181q45 4 72.5 31t27.5 80q0 66 -40 94.5t-121 28.5h-157v-415h82v177zM334 505h67q46 0 65.5 -11.5t19.5 -40.5q0 -30 -18.5 -44t-62.5 -14h-71v110zM400 -10q75 0 144 26t122.5 75.5t83.5 118.5t30 151t-30.5 151t-83.5 118t-122 75.5
t-144 26.5t-144 -26t-122 -75.5t-83.5 -118.5t-30.5 -151t30 -151t83.5 -118.5t122.5 -75.5t144 -26zM682 361q0 -63 -21.5 -117t-60.5 -93.5t-90.5 -61t-109.5 -21.5q-59 0 -110.5 21.5t-90 61t-60 93.5t-21.5 117t21.5 117t60.5 93.5t90 61t110 21.5q58 0 109.5 -21.5
t90.5 -61t60.5 -93.5t21.5 -117z" />
    <glyph glyph-name="macron" unicode="&#xaf;" horiz-adv-x="222" 
d="M-36 637h294v64h-294v-64z" />
    <glyph glyph-name="degree" unicode="&#xb0;" horiz-adv-x="400" 
d="M200 502q-35 0 -58.5 25t-23.5 62t23.5 62t58.5 25t58.5 -25t23.5 -62t-23.5 -62t-58.5 -25zM200 446q61 0 102.5 41.5t41.5 101.5t-41.5 101.5t-102.5 41.5t-102.5 -41.5t-41.5 -101.5t41.5 -101.5t102.5 -41.5z" />
    <glyph glyph-name="plusminus" unicode="&#xb1;" horiz-adv-x="600" 
d="M251 369h-204v-98h204v-137h98v137h204v98h-204v137h-98v-137zM47 0h506v98h-506v-98z" />
    <glyph glyph-name="twosuperior" unicode="&#xb2;" horiz-adv-x="266" 
d="M249 292v80h-126q41 47 66.5 84t39 67.5t18.5 57t5 55.5q0 40 -30.5 68t-78.5 28q-56 0 -92.5 -32.5t-36.5 -80.5v-20h86v19q0 14 9 24t23 10q28 0 28 -28q0 -46 -34.5 -105t-111.5 -146v-81h235z" />
    <glyph glyph-name="threesuperior" unicode="&#xb3;" horiz-adv-x="266" 
d="M20 418v-25q0 -54 29.5 -80.5t81.5 -26.5q65 0 95 31.5t30 96.5q0 46 -10.5 68.5t-42.5 39.5q28 15 37.5 37.5t9.5 61.5q0 47 -29.5 79t-84.5 32q-52 0 -82.5 -28t-30.5 -73v-20h84v17q0 28 25 28q26 0 26 -40q0 -35 -12.5 -46.5t-42.5 -11.5v-74q32 0 44.5 -10.5
t12.5 -43.5v-25q0 -39 -27 -39t-27 31v21h-86z" />
    <glyph glyph-name="acute" unicode="&#xb4;" horiz-adv-x="222" 
d="M254 746h-135l-79 -144h83z" />
    <glyph glyph-name="mu" unicode="&#xb5;" 
d="M278 538v-422q-24 -17 -40 -25.5t-32 -8.5q-40 0 -40 39v417h-112v-708h112v160q33 3 54.5 15.5t56.5 42.5l7 6v-54h106v538h-112z" />
    <glyph glyph-name="paragraph" unicode="&#xb6;" horiz-adv-x="500" 
d="M195 -80h82v738h87v-738h82v738h56v64h-288q-99 0 -153.5 -45.5t-54.5 -142.5q0 -80 51.5 -131t137.5 -51v-432z" />
    <glyph glyph-name="periodcentered" unicode="&#xb7;" horiz-adv-x="222" 
d="M44 253q0 -29 19 -48t48 -19q28 0 47.5 19.5t19.5 47.5t-19.5 47.5t-47.5 19.5t-47.5 -19.5t-19.5 -47.5z" />
    <glyph glyph-name="periodcentered" unicode="&#x2219;" horiz-adv-x="222" 
d="M44 253q0 -29 19 -48t48 -19q28 0 47.5 19.5t19.5 47.5t-19.5 47.5t-47.5 19.5t-47.5 -19.5t-19.5 -47.5z" />
    <glyph glyph-name="cedilla" unicode="&#xb8;" horiz-adv-x="222" 
d="M-9 -213q19 -9 43.5 -16t55.5 -7q51 0 87.5 28t36.5 74q0 35 -27 54.5t-64 21.5q-7 0 -21 -2l41 60h-48l-68 -92l22 -18q16 6 36 6t33.5 -8t13.5 -27q0 -17 -16.5 -29t-42.5 -12q-13 0 -33 5.5t-32 11.5z" />
    <glyph glyph-name="onesuperior" unicode="&#xb9;" horiz-adv-x="266" 
d="M94 292h96v440h-49q-44 -36 -99 -57v-48h52v-335z" />
    <glyph glyph-name="ordmasculine" unicode="&#xba;" horiz-adv-x="266" 
d="M164 509q0 -49 -31 -49t-31 49v110q0 49 31 49t31 -49v-110zM20 517q0 -57 27 -89t86 -32q60 0 86.5 32t26.5 89v95q0 57 -26.5 88.5t-86.5 31.5q-59 0 -86 -31.5t-27 -88.5v-95z" />
    <glyph glyph-name="guillemotright" unicode="&#xbb;" horiz-adv-x="500" 
d="M226 115h96l115 155l-115 153h-99l117 -154zM59 115h96l115 155l-115 153h-99l117 -154z" />
    <glyph glyph-name="onequarter" unicode="&#xbc;" horiz-adv-x="666" 
d="M448 176l62 133h2v-133h-64zM512 0h82v100h38v76h-38v257h-95l-129 -253v-80h142v-100zM165 -10l410 742h-91l-410 -742h91zM102 292h96v439h-49q-46 -35 -99 -56v-48h52v-335z" />
    <glyph glyph-name="onehalf" unicode="&#xbd;" horiz-adv-x="666" 
d="M157 -10l410 742h-91l-410 -742h91zM100 292h96v440h-49q-44 -36 -99 -57v-48h52v-335zM633 0v80h-126q41 47 66.5 84t39 67.5t18.5 57t5 55.5q0 40 -30.5 68t-78.5 28q-56 0 -92.5 -32.5t-36.5 -80.5v-20h86v19q0 14 9 24t23 10q28 0 28 -28q0 -46 -34.5 -105
t-111.5 -146v-81h235z" />
    <glyph glyph-name="threequarters" unicode="&#xbe;" horiz-adv-x="666" 
d="M448 176l62 133h2v-133h-64zM512 0h82v100h38v76h-38v257h-95l-129 -253v-80h142v-100zM184 -10l410 742h-91l-410 -742h91zM30 418v-25q0 -54 29.5 -80.5t81.5 -26.5q65 0 95 31.5t30 96.5q0 46 -10.5 68.5t-42.5 39.5q28 15 37.5 37.5t9.5 61.5q0 47 -29.5 79t-84.5 32
q-52 0 -82.5 -28t-30.5 -73v-20h84v17q0 28 25 28q26 0 26 -40q0 -35 -12.5 -46.5t-42.5 -11.5v-74q32 0 44.5 -10.5t12.5 -43.5v-25q0 -39 -27 -39t-27 31v21h-86z" />
    <glyph glyph-name="questiondown" unicode="&#xbf;" horiz-adv-x="389" 
d="M156 326v-54q0 -59 -16 -97.5t-46 -79.5l-5 -8q-29 -39 -43 -70t-14 -77q0 -57 43 -95.5t101 -38.5q70 0 113.5 32.5t67.5 99.5l-96 36q-8 -32 -25 -54t-46 -22q-18 0 -30 13t-12 32q0 21 10.5 45t30.5 61q7 13 11 20q24 45 38 85.5t14 87.5v84h-96zM147 538v-118h118
v118h-118z" />
    <glyph glyph-name="Agrave" unicode="&#xc0;" 
d="M210 760h83l-79 144h-135zM221 578h2l49 -310h-100zM154 160h136l22 -160h120l-133 722h-154l-133 -722h120z" />
    <glyph glyph-name="Aacute" unicode="&#xc1;" 
d="M365 904h-135l-79 -144h83zM221 578h2l49 -310h-100zM154 160h136l22 -160h120l-133 722h-154l-133 -722h120z" />
    <glyph glyph-name="Acircumflex" unicode="&#xc2;" 
d="M71 760h92l59 89l59 -89h92l-96 144h-110zM221 578h2l49 -310h-100zM154 160h136l22 -160h120l-133 722h-154l-133 -722h120z" />
    <glyph glyph-name="Atilde" unicode="&#xc3;" 
d="M329 891q-1 -23 -10.5 -33.5t-31.5 -10.5q-17 0 -50 15q-7 4 -10 5l-3 1q-39 18 -62 18q-46 0 -69.5 -33t-33.5 -85h56q1 23 10.5 33.5t31.5 10.5t60 -19q40 -20 65 -20q46 0 69.5 33t33.5 85h-56zM221 578h2l49 -310h-100zM154 160h136l22 -160h120l-133 722h-154
l-133 -722h120z" />
    <glyph glyph-name="Adieresis" unicode="&#xc4;" 
d="M355 772v108h-108v-108h108zM89 880v-108h108v108h-108zM221 578h2l49 -310h-100zM154 160h136l22 -160h120l-133 722h-154l-133 -722h120z" />
    <glyph glyph-name="Aring" unicode="&#xc5;" 
d="M120 862q0 -42 30 -72t72 -30t72 30t30 72t-30 72t-72 30t-72 -30t-30 -72zM170 862q0 22 15 37t37 15t37 -15t15 -37t-15 -37t-37 -15t-37 15t-15 37zM221 578h2l49 -310h-100zM154 160h136l22 -160h120l-133 722h-154l-133 -722h120z" />
    <glyph glyph-name="AE" unicode="&#xc6;" horiz-adv-x="722" 
d="M224 278l108 354h2v-354h-110zM12 0h126l52 170h144v-170h350v108h-226v212h164v108h-164v186h212v108h-425z" />
    <glyph glyph-name="Ccedilla" unicode="&#xc7;" horiz-adv-x="500" 
d="M130 -213q19 -9 43.5 -16t55.5 -7q51 0 87.5 28t36.5 74q0 35 -27 54.5t-64 21.5q-7 0 -21 -2l41 60h-48l-68 -92l22 -18q16 6 36 6t33.5 -8t13.5 -27q0 -17 -16.5 -29t-42.5 -12q-13 0 -33 5.5t-32 11.5zM434 481v53q0 86 -47.5 142t-136.5 56q-93 0 -141.5 -52
t-48.5 -133v-372q0 -81 48.5 -133t141.5 -52q89 0 136.5 52t47.5 133v83h-124v-87q0 -37 -13.5 -55t-46.5 -18q-36 0 -51 19t-15 61v366q0 42 15 61t51 19q26 0 43 -22t17 -65v-56h124z" />
    <glyph glyph-name="Egrave" unicode="&#xc8;" 
d="M222 760h83l-79 144h-135zM406 0v108h-222v212h160v108h-160v186h208v108h-332v-722h346z" />
    <glyph glyph-name="Eacute" unicode="&#xc9;" 
d="M377 904h-135l-79 -144h83zM406 0v108h-222v212h160v108h-160v186h208v108h-332v-722h346z" />
    <glyph glyph-name="Ecircumflex" unicode="&#xca;" 
d="M83 760h92l59 89l59 -89h92l-96 144h-110zM406 0v108h-222v212h160v108h-160v186h208v108h-332v-722h346z" />
    <glyph glyph-name="Edieresis" unicode="&#xcb;" 
d="M367 772v108h-108v-108h108zM101 880v-108h108v108h-108zM406 0v108h-222v212h160v108h-160v186h208v108h-332v-722h346z" />
    <glyph glyph-name="Igrave" unicode="&#xcc;" horiz-adv-x="278" 
d="M127 760h83l-79 144h-135zM201 0v722h-124v-722h124z" />
    <glyph glyph-name="Iacute" unicode="&#xcd;" horiz-adv-x="278" 
d="M282 904h-135l-79 -144h83zM201 0v722h-124v-722h124z" />
    <glyph glyph-name="Icircumflex" unicode="&#xce;" horiz-adv-x="278" 
d="M-12 760h92l59 89l59 -89h92l-96 144h-110zM201 0v722h-124v-722h124z" />
    <glyph glyph-name="Idieresis" unicode="&#xcf;" horiz-adv-x="278" 
d="M272 772v108h-108v-108h108zM6 880v-108h108v108h-108zM201 0v722h-124v-722h124z" />
    <glyph glyph-name="Eth" unicode="&#xd0;" horiz-adv-x="500" 
d="M20 320h40v-320h184q97 0 146.5 54t49.5 164v286q0 110 -49.5 164t-146.5 54h-184v-294h-40v-108zM258 428h-74v192h43q50 0 69.5 -22t19.5 -79v-316q0 -57 -19.5 -79t-69.5 -22h-43v218h74v108z" />
    <glyph glyph-name="Ntilde" unicode="&#xd1;" horiz-adv-x="500" 
d="M357 891q-1 -23 -10.5 -33.5t-31.5 -10.5q-17 0 -50 15q-7 4 -10 5l-3 1q-39 18 -62 18q-46 0 -69.5 -33t-33.5 -85h56q1 23 10.5 33.5t31.5 10.5t60 -19q40 -20 65 -20q46 0 69.5 33t33.5 85h-56zM172 0v451h2l158 -451h108v722h-112v-413h-2l-151 413h-115v-722h112z
" />
    <glyph glyph-name="Ograve" unicode="&#xd2;" horiz-adv-x="500" 
d="M238 760h83l-79 144h-135zM60 175q0 -81 48.5 -133t141.5 -52t141.5 52t48.5 133v372q0 81 -48.5 133t-141.5 52t-141.5 -52t-48.5 -133v-372zM184 544q0 42 15 61t51 19q37 0 51.5 -19t14.5 -61v-366q0 -42 -14.5 -61t-51.5 -19q-36 0 -51 19t-15 61v366z" />
    <glyph glyph-name="Oacute" unicode="&#xd3;" horiz-adv-x="500" 
d="M393 904h-135l-79 -144h83zM60 175q0 -81 48.5 -133t141.5 -52t141.5 52t48.5 133v372q0 81 -48.5 133t-141.5 52t-141.5 -52t-48.5 -133v-372zM184 544q0 42 15 61t51 19q37 0 51.5 -19t14.5 -61v-366q0 -42 -14.5 -61t-51.5 -19q-36 0 -51 19t-15 61v366z" />
    <glyph glyph-name="Ocircumflex" unicode="&#xd4;" horiz-adv-x="500" 
d="M99 760h92l59 89l59 -89h92l-96 144h-110zM60 175q0 -81 48.5 -133t141.5 -52t141.5 52t48.5 133v372q0 81 -48.5 133t-141.5 52t-141.5 -52t-48.5 -133v-372zM184 544q0 42 15 61t51 19q37 0 51.5 -19t14.5 -61v-366q0 -42 -14.5 -61t-51.5 -19q-36 0 -51 19t-15 61v366
z" />
    <glyph glyph-name="Otilde" unicode="&#xd5;" horiz-adv-x="500" 
d="M357 891q-1 -23 -10.5 -33.5t-31.5 -10.5q-17 0 -50 15q-7 4 -10 5l-3 1q-39 18 -62 18q-46 0 -69.5 -33t-33.5 -85h56q1 23 10.5 33.5t31.5 10.5t60 -19q40 -20 65 -20q46 0 69.5 33t33.5 85h-56zM60 175q0 -81 48.5 -133t141.5 -52t141.5 52t48.5 133v372
q0 81 -48.5 133t-141.5 52t-141.5 -52t-48.5 -133v-372zM184 544q0 42 15 61t51 19q37 0 51.5 -19t14.5 -61v-366q0 -42 -14.5 -61t-51.5 -19q-36 0 -51 19t-15 61v366z" />
    <glyph glyph-name="Odieresis" unicode="&#xd6;" horiz-adv-x="500" 
d="M383 772v108h-108v-108h108zM117 880v-108h108v108h-108zM60 175q0 -81 48.5 -133t141.5 -52t141.5 52t48.5 133v372q0 81 -48.5 133t-141.5 52t-141.5 -52t-48.5 -133v-372zM184 544q0 42 15 61t51 19q37 0 51.5 -19t14.5 -61v-366q0 -42 -14.5 -61t-51.5 -19
q-36 0 -51 19t-15 61v366z" />
    <glyph glyph-name="multiply" unicode="&#xd7;" horiz-adv-x="600" 
d="M553 437l-69 69l-184 -184l-184 184l-69 -69l184 -184l-184 -183l69 -70l184 184l184 -184l69 70l-183 183z" />
    <glyph glyph-name="Oslash" unicode="&#xd8;" horiz-adv-x="500" 
d="M186 257h-2v287q0 42 15 61t51 19q52 0 62 -42zM314 424h2v-246q0 -42 -14.5 -61t-51.5 -19q-41 0 -53 23zM160 7q39 -17 90 -17q93 0 141.5 52t48.5 133v372q0 62 -27 105l59 152h-81l-38 -96q-42 24 -103 24q-93 0 -141.5 -52t-48.5 -133v-372q0 -72 37 -119l-69 -176
h82z" />
    <glyph glyph-name="Ugrave" unicode="&#xd9;" horiz-adv-x="500" 
d="M238 760h83l-79 144h-135zM60 182q0 -92 50.5 -142t139.5 -50t139.5 50t50.5 142v540h-124v-545q0 -79 -66 -79t-66 79v545h-124v-540z" />
    <glyph glyph-name="Uacute" unicode="&#xda;" horiz-adv-x="500" 
d="M393 904h-135l-79 -144h83zM60 182q0 -92 50.5 -142t139.5 -50t139.5 50t50.5 142v540h-124v-545q0 -79 -66 -79t-66 79v545h-124v-540z" />
    <glyph glyph-name="Ucircumflex" unicode="&#xdb;" horiz-adv-x="500" 
d="M99 760h92l59 89l59 -89h92l-96 144h-110zM60 182q0 -92 50.5 -142t139.5 -50t139.5 50t50.5 142v540h-124v-545q0 -79 -66 -79t-66 79v545h-124v-540z" />
    <glyph glyph-name="Udieresis" unicode="&#xdc;" horiz-adv-x="500" 
d="M383 772v108h-108v-108h108zM117 880v-108h108v108h-108zM60 182q0 -92 50.5 -142t139.5 -50t139.5 50t50.5 142v540h-124v-545q0 -79 -66 -79t-66 79v545h-124v-540z" />
    <glyph glyph-name="Yacute" unicode="&#xdd;" 
d="M365 904h-135l-79 -144h83zM284 300l150 422h-126l-83 -275h-2l-87 275h-126l150 -422v-300h124v300z" />
    <glyph glyph-name="Thorn" unicode="&#xde;" horiz-adv-x="500" 
d="M184 722h-124v-722h124v156h54q116 0 170 49.5t54 163.5t-54 163.5t-170 49.5h-54v140zM184 480h48q61 0 83.5 -23.5t22.5 -87.5t-22.5 -87.5t-83.5 -23.5h-48v222z" />
    <glyph glyph-name="germandbls" unicode="&#xdf;" 
d="M166 0v562q0 39 12.5 56.5t40.5 17.5q52 0 52 -64v-70q0 -40 -9 -53.5t-38 -18.5v-92q62 0 62 -78v-101q0 -35 -8.5 -51t-30.5 -16q-15 0 -27 3v-95h66q59 0 87.5 45t28.5 159q0 85 -22 130.5t-70 60.5v2q38 5 55.5 39t17.5 95q0 44 -8 79t-27.5 61.5t-52.5 41.5t-82 15
q-77 0 -118 -47.5t-41 -140.5v-540h112z" />
    <glyph glyph-name="agrave" unicode="&#xe0;" 
d="M210 602h83l-79 144h-135zM154 380q2 38 15 57t49 19q55 0 55 -69v-32q-125 -47 -182 -102.5t-57 -141.5q0 -54 29.5 -87.5t84.5 -33.5q39 0 68 12.5t63 39.5q1 -7 3 -19q3 -15 3 -23h107l-1 5q-6 37 -6 52v345q0 73 -42 109.5t-121 36.5q-80 0 -128 -43.5t-52 -124.5
h112zM273 132q-16 -23 -34.5 -36.5t-40.5 -13.5q-52 0 -52 49q0 37 26.5 68.5t100.5 73.5v-141z" />
    <glyph glyph-name="aacute" unicode="&#xe1;" 
d="M365 746h-135l-79 -144h83zM154 380q2 38 15 57t49 19q55 0 55 -69v-32q-125 -47 -182 -102.5t-57 -141.5q0 -54 29.5 -87.5t84.5 -33.5q39 0 68 12.5t63 39.5q1 -7 3 -19q3 -15 3 -23h107l-1 5q-6 37 -6 52v345q0 73 -42 109.5t-121 36.5q-80 0 -128 -43.5t-52 -124.5
h112zM273 132q-16 -23 -34.5 -36.5t-40.5 -13.5q-52 0 -52 49q0 37 26.5 68.5t100.5 73.5v-141z" />
    <glyph glyph-name="acircumflex" unicode="&#xe2;" 
d="M71 602h92l59 89l59 -89h92l-96 144h-110zM154 380q2 38 15 57t49 19q55 0 55 -69v-32q-125 -47 -182 -102.5t-57 -141.5q0 -54 29.5 -87.5t84.5 -33.5q39 0 68 12.5t63 39.5q1 -7 3 -19q3 -15 3 -23h107l-1 5q-6 37 -6 52v345q0 73 -42 109.5t-121 36.5
q-80 0 -128 -43.5t-52 -124.5h112zM273 132q-16 -23 -34.5 -36.5t-40.5 -13.5q-52 0 -52 49q0 37 26.5 68.5t100.5 73.5v-141z" />
    <glyph glyph-name="atilde" unicode="&#xe3;" 
d="M329 733q-1 -23 -10.5 -33.5t-31.5 -10.5q-17 0 -50 15q-7 4 -10 5l-3 1q-39 18 -62 18q-46 0 -69.5 -33t-33.5 -85h56q1 23 10.5 33.5t31.5 10.5t60 -19q40 -20 65 -20q46 0 69.5 33t33.5 85h-56zM154 380q2 38 15 57t49 19q55 0 55 -69v-32q-125 -47 -182 -102.5
t-57 -141.5q0 -54 29.5 -87.5t84.5 -33.5q39 0 68 12.5t63 39.5q1 -7 3 -19q3 -15 3 -23h107l-1 5q-6 37 -6 52v345q0 73 -42 109.5t-121 36.5q-80 0 -128 -43.5t-52 -124.5h112zM273 132q-16 -23 -34.5 -36.5t-40.5 -13.5q-52 0 -52 49q0 37 26.5 68.5t100.5 73.5v-141z
" />
    <glyph glyph-name="adieresis" unicode="&#xe4;" 
d="M355 614v108h-108v-108h108zM89 722v-108h108v108h-108zM154 380q2 38 15 57t49 19q55 0 55 -69v-32q-125 -47 -182 -102.5t-57 -141.5q0 -54 29.5 -87.5t84.5 -33.5q39 0 68 12.5t63 39.5q1 -7 3 -19q3 -15 3 -23h107l-1 5q-6 37 -6 52v345q0 73 -42 109.5t-121 36.5
q-80 0 -128 -43.5t-52 -124.5h112zM273 132q-16 -23 -34.5 -36.5t-40.5 -13.5q-52 0 -52 49q0 37 26.5 68.5t100.5 73.5v-141z" />
    <glyph glyph-name="aring" unicode="&#xe5;" 
d="M120 704q0 -42 30 -72t72 -30t72 30t30 72t-30 72t-72 30t-72 -30t-30 -72zM170 704q0 22 15 37t37 15t37 -15t15 -37t-15 -37t-37 -15t-37 15t-15 37zM154 380q2 38 15 57t49 19q55 0 55 -69v-32q-125 -47 -182 -102.5t-57 -141.5q0 -54 29.5 -87.5t84.5 -33.5
q39 0 68 12.5t63 39.5q1 -7 3 -19q3 -15 3 -23h107l-1 5q-6 37 -6 52v345q0 73 -42 109.5t-121 36.5q-80 0 -128 -43.5t-52 -124.5h112zM273 132q-16 -23 -34.5 -36.5t-40.5 -13.5q-52 0 -52 49q0 37 26.5 68.5t100.5 73.5v-141z" />
    <glyph glyph-name="ae" unicode="&#xe6;" horiz-adv-x="667" 
d="M272 132q-15 -23 -33.5 -36.5t-40.5 -13.5q-52 0 -52 49q0 37 26.5 68.5t99.5 73.5v-141zM384 340v28q0 88 61 88q31 0 46.5 -21t15.5 -67v-28h-123zM619 248v100q0 94 -40 147t-125 53q-80 0 -119 -50q-42 50 -129 50q-69 0 -114.5 -44t-49.5 -124h112q2 38 15 57t49 19
q54 0 54 -69v-32q-125 -47 -181.5 -102.5t-56.5 -141.5q0 -55 31.5 -88t94.5 -33q32 0 66 13.5t83 56.5q20 -33 54 -51.5t82 -18.5q90 0 131 50.5t43 141.5h-112v-12q0 -46 -15.5 -67t-46.5 -21q-61 0 -61 88v78h235z" />
    <glyph glyph-name="ccedilla" unicode="&#xe7;" 
d="M102 -213q19 -9 43.5 -16t55.5 -7q51 0 87.5 28t36.5 74q0 35 -27 54.5t-64 21.5q-7 0 -21 -2l41 60h-48l-68 -92l22 -18q16 6 36 6t33.5 -8t13.5 -27q0 -17 -16.5 -29t-42.5 -12q-13 0 -33 5.5t-32 11.5zM396 354q-2 92 -43 143t-131 51q-91 0 -132.5 -53t-41.5 -147
v-158q0 -94 41.5 -147t132.5 -53t132.5 53t41.5 147v14h-112v-34q0 -46 -15.5 -67t-46.5 -21t-46.5 21t-15.5 67v198q0 46 15.5 67t46.5 21t46.5 -21t15.5 -67v-14h112z" />
    <glyph glyph-name="egrave" unicode="&#xe8;" 
d="M210 602h83l-79 144h-135zM160 340v28q0 46 15.5 67t46.5 21t46.5 -21t15.5 -67v-28h-124zM396 348q0 94 -41.5 147t-132.5 53t-132.5 -53t-41.5 -147v-158q0 -94 41.5 -147t132.5 -53q90 0 131 50.5t43 141.5h-112v-12q0 -46 -15.5 -67t-46.5 -21t-46.5 21t-15.5 67v78
h236v100z" />
    <glyph glyph-name="eacute" unicode="&#xe9;" 
d="M365 746h-135l-79 -144h83zM160 340v28q0 46 15.5 67t46.5 21t46.5 -21t15.5 -67v-28h-124zM396 348q0 94 -41.5 147t-132.5 53t-132.5 -53t-41.5 -147v-158q0 -94 41.5 -147t132.5 -53q90 0 131 50.5t43 141.5h-112v-12q0 -46 -15.5 -67t-46.5 -21t-46.5 21t-15.5 67v78
h236v100z" />
    <glyph glyph-name="ecircumflex" unicode="&#xea;" 
d="M71 602h92l59 89l59 -89h92l-96 144h-110zM160 340v28q0 46 15.5 67t46.5 21t46.5 -21t15.5 -67v-28h-124zM396 348q0 94 -41.5 147t-132.5 53t-132.5 -53t-41.5 -147v-158q0 -94 41.5 -147t132.5 -53q90 0 131 50.5t43 141.5h-112v-12q0 -46 -15.5 -67t-46.5 -21
t-46.5 21t-15.5 67v78h236v100z" />
    <glyph glyph-name="edieresis" unicode="&#xeb;" 
d="M355 614v108h-108v-108h108zM89 722v-108h108v108h-108zM160 340v28q0 46 15.5 67t46.5 21t46.5 -21t15.5 -67v-28h-124zM396 348q0 94 -41.5 147t-132.5 53t-132.5 -53t-41.5 -147v-158q0 -94 41.5 -147t132.5 -53q90 0 131 50.5t43 141.5h-112v-12q0 -46 -15.5 -67
t-46.5 -21t-46.5 21t-15.5 67v78h236v100z" />
    <glyph glyph-name="igrave" unicode="&#xec;" horiz-adv-x="222" 
d="M99 602h83l-79 144h-135zM167 0v538h-112v-538h112z" />
    <glyph glyph-name="iacute" unicode="&#xed;" horiz-adv-x="222" 
d="M254 746h-135l-79 -144h83zM167 0v538h-112v-538h112z" />
    <glyph glyph-name="icircumflex" unicode="&#xee;" horiz-adv-x="222" 
d="M-40 602h92l59 89l59 -89h92l-96 144h-110zM167 0v538h-112v-538h112z" />
    <glyph glyph-name="idieresis" unicode="&#xef;" horiz-adv-x="222" 
d="M244 614v108h-108v-108h108zM-22 722v-108h108v108h-108zM167 0v538h-112v-538h112z" />
    <glyph glyph-name="eth" unicode="&#xf0;" 
d="M284 163q0 -42 -15.5 -61.5t-46.5 -19.5t-46.5 19.5t-15.5 61.5v162q0 42 15.5 61.5t46.5 19.5t46.5 -19.5t15.5 -61.5v-162zM386 718l-109 -42q-22 28 -47 46l-86 -24q24 -21 47 -55l-93 -35l27 -72l105 40q12 -21 19.5 -40.5t9.5 -39.5l-7 1q-20 1 -30 1
q-92 0 -133 -48.5t-41 -135.5v-140q0 -87 41 -135.5t133 -48.5t133 48.5t41 135.5v140q0 82 -20 159t-55 138l95 37z" />
    <glyph glyph-name="ntilde" unicode="&#xf1;" 
d="M329 733q-1 -23 -10.5 -33.5t-31.5 -10.5q-17 0 -50 15q-7 4 -10 5l-3 1q-39 18 -62 18q-46 0 -69.5 -33t-33.5 -85h56q1 23 10.5 33.5t31.5 10.5t60 -19q40 -20 65 -20q46 0 69.5 33t33.5 85h-56zM166 0v422q24 17 40 25.5t32 8.5q40 0 40 -39v-417h112v435q0 53 -25 83
t-69 30q-42 0 -66.5 -12.5t-61.5 -44.5l-8 -7v54h-106v-538h112z" />
    <glyph glyph-name="ograve" unicode="&#xf2;" 
d="M210 602h83l-79 144h-135zM284 170q0 -46 -15.5 -67t-46.5 -21t-46.5 21t-15.5 67v198q0 46 15.5 67t46.5 21t46.5 -21t15.5 -67v-198zM48 190q0 -94 41.5 -147t132.5 -53t132.5 53t41.5 147v158q0 94 -41.5 147t-132.5 53t-132.5 -53t-41.5 -147v-158z" />
    <glyph glyph-name="oacute" unicode="&#xf3;" 
d="M365 746h-135l-79 -144h83zM284 170q0 -46 -15.5 -67t-46.5 -21t-46.5 21t-15.5 67v198q0 46 15.5 67t46.5 21t46.5 -21t15.5 -67v-198zM48 190q0 -94 41.5 -147t132.5 -53t132.5 53t41.5 147v158q0 94 -41.5 147t-132.5 53t-132.5 -53t-41.5 -147v-158z" />
    <glyph glyph-name="ocircumflex" unicode="&#xf4;" 
d="M71 602h92l59 89l59 -89h92l-96 144h-110zM284 170q0 -46 -15.5 -67t-46.5 -21t-46.5 21t-15.5 67v198q0 46 15.5 67t46.5 21t46.5 -21t15.5 -67v-198zM48 190q0 -94 41.5 -147t132.5 -53t132.5 53t41.5 147v158q0 94 -41.5 147t-132.5 53t-132.5 -53t-41.5 -147v-158z
" />
    <glyph glyph-name="otilde" unicode="&#xf5;" 
d="M329 733q-1 -23 -10.5 -33.5t-31.5 -10.5q-17 0 -50 15q-7 4 -10 5l-3 1q-39 18 -62 18q-46 0 -69.5 -33t-33.5 -85h56q1 23 10.5 33.5t31.5 10.5t60 -19q40 -20 65 -20q46 0 69.5 33t33.5 85h-56zM284 170q0 -46 -15.5 -67t-46.5 -21t-46.5 21t-15.5 67v198
q0 46 15.5 67t46.5 21t46.5 -21t15.5 -67v-198zM48 190q0 -94 41.5 -147t132.5 -53t132.5 53t41.5 147v158q0 94 -41.5 147t-132.5 53t-132.5 -53t-41.5 -147v-158z" />
    <glyph glyph-name="odieresis" unicode="&#xf6;" 
d="M355 614v108h-108v-108h108zM89 722v-108h108v108h-108zM284 170q0 -46 -15.5 -67t-46.5 -21t-46.5 21t-15.5 67v198q0 46 15.5 67t46.5 21t46.5 -21t15.5 -67v-198zM48 190q0 -94 41.5 -147t132.5 -53t132.5 53t41.5 147v158q0 94 -41.5 147t-132.5 53t-132.5 -53
t-41.5 -147v-158z" />
    <glyph glyph-name="divide" unicode="&#xf7;" horiz-adv-x="600" 
d="M553 204v98h-506v-98h506zM220 460q0 -33 23.5 -56.5t56.5 -23.5t56.5 23.5t23.5 56.5t-23.5 56.5t-56.5 23.5t-56.5 -23.5t-23.5 -56.5zM220 46q0 -33 23.5 -56.5t56.5 -23.5t56.5 23.5t23.5 56.5t-23.5 56.5t-56.5 23.5t-56.5 -23.5t-23.5 -56.5z" />
    <glyph glyph-name="oslash" unicode="&#xf8;" 
d="M282 353h2v-183q0 -46 -15.5 -67t-46.5 -21q-21 0 -38 12zM153 1q30 -11 69 -11q91 0 132.5 53t41.5 147v158q0 51 -11.5 90t-36.5 65l54 143h-68l-41 -109q-33 11 -71 11q-91 0 -132.5 -53t-41.5 -147v-158q0 -52 12.5 -91.5t39.5 -65.5l-58 -153h66zM162 173h-2v195
q0 46 15.5 67t46.5 21q26 0 40 -14z" />
    <glyph glyph-name="ugrave" unicode="&#xf9;" 
d="M210 602h83l-79 144h-135zM278 538v-422q-24 -17 -40 -25.5t-32 -8.5q-40 0 -40 39v417h-112v-435q0 -53 25 -83t69 -30q42 0 66.5 12.5t61.5 44.5l8 7v-54h106v538h-112z" />
    <glyph glyph-name="uacute" unicode="&#xfa;" 
d="M365 746h-135l-79 -144h83zM278 538v-422q-24 -17 -40 -25.5t-32 -8.5q-40 0 -40 39v417h-112v-435q0 -53 25 -83t69 -30q42 0 66.5 12.5t61.5 44.5l8 7v-54h106v538h-112z" />
    <glyph glyph-name="ucircumflex" unicode="&#xfb;" 
d="M71 602h92l59 89l59 -89h92l-96 144h-110zM278 538v-422q-24 -17 -40 -25.5t-32 -8.5q-40 0 -40 39v417h-112v-435q0 -53 25 -83t69 -30q42 0 66.5 12.5t61.5 44.5l8 7v-54h106v538h-112z" />
    <glyph glyph-name="udieresis" unicode="&#xfc;" 
d="M355 614v108h-108v-108h108zM89 722v-108h108v108h-108zM278 538v-422q-24 -17 -40 -25.5t-32 -8.5q-40 0 -40 39v417h-112v-435q0 -53 25 -83t69 -30q42 0 66.5 12.5t61.5 44.5l8 7v-54h106v538h-112z" />
    <glyph glyph-name="yacute" unicode="&#xfd;" horiz-adv-x="389" 
d="M338 746h-135l-79 -144h83zM198 194h-2l-72 344h-114l117 -457q12 -45 12 -71q0 -45 -16.5 -66t-57.5 -21h-27v-92h47q65 0 100 28.5t53 100.5l141 578h-113z" />
    <glyph glyph-name="thorn" unicode="&#xfe;" 
d="M54 722v-892h112v216l4 -3q37 -30 58 -41.5t54 -11.5q53 0 83.5 38.5t30.5 111.5v258q0 73 -30.5 111.5t-83.5 38.5q-40 0 -65 -14t-49 -47h-2v235h-112zM166 428q39 28 64 28t39.5 -19t14.5 -68v-200q0 -49 -14.5 -68t-39.5 -19t-64 28v318z" />
    <glyph glyph-name="ydieresis" unicode="&#xff;" horiz-adv-x="389" 
d="M328 614v108h-108v-108h108zM62 722v-108h108v108h-108zM198 194h-2l-72 344h-114l117 -457q12 -45 12 -71q0 -45 -16.5 -66t-57.5 -21h-27v-92h47q65 0 100 28.5t53 100.5l141 578h-113z" />
    </font>
</defs>
</svg>
