<?xml version="1.0" standalone="no"?>
<!DOCTYPE svg PUBLIC "-//W3C//DTD SVG 20010904//EN"
 "http://www.w3.org/TR/2001/REC-SVG-20010904/DTD/svg10.dtd">
<svg version="1.0" xmlns="http://www.w3.org/2000/svg"
 width="260.000000pt" height="260.000000pt" viewBox="0 0 260.000000 260.000000"
 preserveAspectRatio="xMidYMid meet">
<metadata>
Created by potrace 1.14, written by Peter Selinger 2001-2017
</metadata>
<g transform="translate(0.000000,260.000000) scale(0.100000,-0.100000)"
fill="#000000" stroke="none">
<path d="M2180 2278 c0 -4 -3 -7 -7 -7 -20 3 -34 -2 -29 -10 3 -5 -1 -11 -9
-15 -8 -3 -12 -12 -9 -20 3 -8 0 -17 -5 -21 -6 -3 -9 -11 -6 -16 4 -5 2 -9 -3
-9 -6 0 -8 -10 -4 -22 4 -16 2 -19 -8 -13 -10 6 -12 4 -7 -8 3 -9 0 -23 -8
-31 -8 -7 -11 -16 -8 -20 3 -3 -2 -8 -11 -12 -9 -3 -16 -10 -16 -16 0 -5 6 -6
13 -3 6 4 1 -3 -12 -14 -13 -12 -18 -21 -12 -21 7 0 3 -10 -9 -22 -19 -21 -24
-33 -21 -51 1 -5 -3 -6 -8 -3 -5 4 -12 -3 -16 -14 -4 -12 -11 -17 -18 -13 -7
4 -5 -2 3 -12 9 -11 10 -16 3 -11 -12 6 -18 -5 -14 -26 0 -5 -4 -8 -10 -8 -5
0 -7 -4 -4 -10 3 -5 -1 -10 -9 -10 -10 0 -14 -6 -10 -17 2 -10 -1 -8 -7 5 -7
12 -16 22 -21 22 -5 0 -6 5 -3 10 3 6 1 10 -5 10 -7 0 -10 7 -7 15 4 8 1 17
-5 21 -7 4 -8 3 -4 -4 4 -8 2 -10 -8 -6 -8 3 -12 12 -10 19 3 7 -6 25 -21 39
-14 14 -21 26 -15 26 5 0 -3 14 -20 31 -16 17 -27 35 -25 40 3 4 0 11 -6 15
-8 5 -9 3 -4 -7 4 -8 -3 -3 -17 11 -13 14 -23 28 -21 33 2 4 -2 7 -10 7 -8 0
-21 8 -28 17 -12 14 -12 16 0 8 10 -5 12 -4 7 4 -4 6 -11 9 -16 6 -5 -3 -14 4
-20 15 -6 11 -18 20 -26 20 -8 0 -13 3 -11 8 3 4 -1 13 -9 20 -8 7 -14 10 -14
6 0 -3 -9 4 -21 17 -14 17 -22 20 -25 11 -3 -6 -9 -10 -14 -7 -5 3 -11 -4 -15
-15 -4 -11 -11 -18 -16 -15 -5 4 -14 -5 -20 -19 -7 -14 -15 -23 -20 -21 -4 3
-13 -11 -20 -30 -7 -19 -17 -35 -22 -35 -4 0 -5 5 -2 10 3 6 4 10 1 10 -10 0
-35 -58 -28 -65 4 -5 -1 -5 -10 -2 -12 4 -15 2 -11 -9 3 -8 -1 -14 -11 -14
-10 0 -16 -9 -16 -22 0 -17 -3 -19 -9 -10 -6 10 -10 8 -16 -10 -14 -43 -14
-59 1 -47 11 9 14 8 14 -4 0 -9 5 -19 12 -23 7 -5 9 -2 4 7 -4 8 -1 6 7 -3 8
-10 17 -15 20 -11 4 3 7 1 7 -5 0 -7 7 -12 15 -12 8 0 15 -5 15 -11 0 -5 4 -8
9 -5 5 3 26 -9 46 -26 79 -71 116 -108 109 -108 -4 0 1 -6 11 -14 11 -8 24
-12 29 -9 5 4 6 1 2 -6 -5 -7 0 -19 10 -27 11 -9 13 -13 7 -9 -8 4 -11 1 -7
-9 3 -9 11 -14 17 -13 7 1 11 -4 10 -10 -2 -7 2 -13 8 -13 5 0 7 -4 4 -10 -3
-5 0 -10 8 -10 8 0 18 -7 21 -16 3 -9 2 -12 -5 -8 -6 3 -5 -3 3 -15 7 -12 16
-21 20 -21 5 0 8 -7 8 -16 0 -8 7 -22 15 -30 8 -8 12 -21 9 -29 -4 -8 -1 -15
6 -15 7 0 10 -7 6 -15 -3 -9 0 -18 7 -21 14 -5 16 -31 3 -52 -4 -6 -3 -12 2
-12 6 0 12 -20 14 -45 2 -25 1 -45 -2 -45 -3 0 -3 -27 0 -59 3 -33 3 -68 -1
-77 -3 -10 -3 -32 1 -48 4 -22 1 -35 -9 -44 -14 -12 -14 -13 3 -8 16 6 17 4 5
-10 -17 -20 -20 -44 -7 -44 6 0 5 -6 -2 -15 -7 -8 -9 -15 -6 -15 4 0 2 -8 -3
-18 -6 -11 -6 -24 1 -36 7 -12 7 -17 0 -12 -5 3 -13 -1 -16 -10 -4 -10 -2 -13
7 -8 8 6 8 3 -1 -9 -8 -9 -11 -21 -7 -27 3 -5 2 -10 -4 -10 -6 0 -8 -6 -5 -14
3 -8 1 -17 -5 -21 -6 -3 -11 -17 -11 -31 0 -13 -5 -24 -11 -24 -6 0 -9 -9 -6
-20 3 -11 1 -18 -4 -14 -9 5 -34 -43 -31 -59 1 -4 -2 -7 -8 -7 -6 0 -9 -3 -9
-7 3 -20 -2 -34 -11 -28 -5 3 -7 0 -5 -8 3 -7 -3 -24 -15 -37 -23 -27 -25 -34
-7 -25 6 4 3 -1 -7 -9 -11 -9 -16 -16 -12 -16 4 0 -7 -20 -24 -44 -16 -25 -30
-49 -30 -55 0 -6 -4 -11 -10 -11 -5 0 -7 -6 -4 -14 3 -9 12 -12 21 -9 9 4 14
2 11 -3 -8 -11 82 -11 101 0 8 5 51 9 97 9 46 0 84 3 84 7 0 3 34 6 76 5 41 0
78 3 80 7 8 13 26 9 19 -4 -4 -7 0 -5 8 5 11 13 16 15 19 5 4 -11 8 -11 20 0
9 7 19 9 22 4 7 -11 57 -9 76 3 8 5 11 4 6 -3 -4 -7 7 -9 31 -7 21 1 41 -1 44
-6 3 -5 11 2 17 16 10 21 9 25 -3 25 -8 0 -15 5 -15 11 0 5 6 7 13 3 8 -5 8
-3 -2 9 -7 9 -18 14 -25 10 -6 -3 -8 -2 -3 2 4 5 -1 17 -10 28 -10 11 -12 17
-6 13 9 -5 11 -2 7 8 -3 9 -10 16 -16 16 -5 0 -6 5 -3 10 3 6 1 10 -5 10 -16
0 -49 42 -50 63 0 9 -4 17 -8 17 -9 0 -39 80 -34 93 1 4 -2 7 -6 7 -4 0 -9 12
-10 27 -2 26 -15 76 -29 113 -11 28 -10 105 1 119 8 11 8 13 0 8 -8 -5 -12 4
-12 28 0 21 4 32 10 29 6 -4 2 6 -8 22 -11 15 -13 25 -6 21 8 -6 12 -1 12 13
0 14 -4 19 -12 14 -10 -6 -10 -4 -2 7 6 8 10 21 9 29 -2 8 -6 30 -9 48 -4 22
-3 31 4 27 7 -4 9 6 6 29 -3 23 0 36 7 36 8 0 7 3 -2 9 -8 5 -9 11 -3 15 5 3
10 16 10 28 1 23 5 40 14 68 25 76 26 80 15 73 -8 -5 -8 -2 0 9 7 8 10 18 6
21 -3 4 -1 7 6 7 7 0 11 7 8 15 -4 8 -1 17 5 21 7 5 8 2 3 -6 -5 -8 -4 -11 3
-7 5 4 9 18 8 32 -2 13 0 22 4 20 7 -4 17 16 25 55 2 8 9 16 15 18 5 2 8 8 4
13 -3 5 0 9 6 9 6 0 8 5 5 10 -3 6 -2 10 2 10 5 0 14 9 21 21 11 17 11 20 0
13 -7 -4 -2 5 11 19 14 15 20 27 15 27 -5 1 1 6 13 13 12 7 22 17 23 22 1 6 6
9 10 8 5 -2 7 7 5 19 -3 11 -2 18 2 15 7 -7 33 18 33 32 0 6 9 15 20 21 11 6
18 15 15 20 -5 8 27 32 36 27 2 -1 3 0 2 2 -2 2 6 11 17 18 11 8 18 19 15 24
-3 5 1 6 10 3 10 -4 15 -2 13 7 -2 8 4 13 14 13 10 -1 15 2 12 7 -3 5 0 9 7 9
8 0 9 3 0 13 -6 8 -7 17 -3 21 4 4 0 6 -8 4 -8 -2 -14 2 -13 8 1 8 -6 10 -19
6 -14 -3 -19 -1 -14 6 4 6 -5 18 -19 28 -14 9 -25 23 -25 31 0 8 -4 12 -9 8
-5 -3 -16 4 -25 16 -9 13 -19 18 -27 14 -8 -5 -10 -4 -5 3 4 7 2 12 -4 12 -6
0 -8 5 -4 12 5 8 2 9 -9 5 -10 -3 -17 -2 -17 4 0 6 -4 8 -9 5 -5 -3 -12 1 -15
10 -3 8 -10 12 -16 9 -5 -3 -16 -3 -22 1 -18 11 -48 12 -48 2z"/>
<path d="M350 2240 c0 -7 -6 -10 -14 -7 -7 3 -24 -2 -37 -10 -13 -10 -19 -11
-15 -4 6 8 -2 7 -23 -3 -17 -9 -31 -19 -31 -22 0 -3 6 -2 13 2 7 5 7 1 -2 -10
-12 -14 -12 -19 -2 -26 11 -6 11 -9 0 -13 -10 -4 -10 -6 -1 -6 6 -1 12 -10 12
-21 0 -11 5 -20 11 -20 5 0 7 -5 4 -10 -4 -6 -1 -18 7 -27 9 -12 9 -15 1 -9
-9 5 -11 2 -7 -8 3 -9 11 -13 18 -9 6 4 5 -1 -3 -10 -12 -15 -11 -17 4 -17 12
0 16 -6 12 -20 -3 -11 -1 -18 4 -14 5 3 9 -2 9 -10 0 -9 6 -16 13 -16 8 0 7
-4 -3 -10 -8 -5 -10 -10 -4 -10 6 0 11 -7 12 -15 1 -8 3 -22 4 -30 1 -8 5 -15
9 -15 12 0 17 -39 5 -44 -7 -3 -7 -5 2 -5 6 -1 12 -6 12 -12 0 -5 -6 -7 -12
-3 -9 5 -9 3 1 -9 7 -9 18 -14 25 -11 6 3 2 -2 -8 -10 -12 -10 -15 -16 -7 -16
7 0 11 -6 8 -14 -3 -8 1 -17 9 -20 12 -4 12 -10 4 -26 -8 -14 -8 -20 0 -20 6
0 8 -5 3 -12 -11 -19 -12 -38 -2 -38 5 0 9 -5 9 -11 0 -5 -5 -7 -11 -3 -7 4
-7 -1 1 -16 10 -18 9 -21 -1 -15 -9 6 -10 3 -4 -11 9 -21 9 -34 2 -76 -2 -16
0 -28 4 -28 5 0 4 -12 -2 -27 -7 -19 -6 -28 2 -33 8 -6 7 -9 -2 -13 -10 -4
-10 -6 -1 -6 6 -1 12 -6 12 -12 0 -5 -5 -7 -11 -3 -7 4 -7 -1 1 -16 10 -18 9
-21 -1 -15 -9 6 -10 3 -4 -11 9 -21 9 -34 2 -76 -2 -16 -1 -28 3 -28 5 0 6 -9
3 -20 -3 -11 -9 -17 -14 -14 -5 3 -6 -2 -2 -11 3 -10 0 -21 -8 -26 -12 -7 -12
-9 0 -9 11 0 11 -3 0 -17 -12 -15 -12 -16 1 -8 12 7 13 6 3 -7 -7 -8 -10 -18
-6 -21 3 -4 2 -7 -4 -7 -6 0 -8 -12 -5 -26 4 -21 2 -25 -9 -19 -11 7 -11 5 1
-10 10 -13 11 -16 2 -11 -9 5 -13 3 -11 -5 4 -31 -1 -50 -12 -43 -7 4 -7 -1 1
-16 8 -15 8 -20 1 -16 -6 4 -11 3 -11 -3 0 -5 -3 -17 -7 -27 -5 -12 -3 -15 6
-9 10 6 11 3 2 -14 -7 -11 -8 -21 -4 -21 4 0 -3 -9 -15 -20 -23 -21 -30 -36
-12 -25 5 3 10 1 10 -4 0 -6 -4 -11 -10 -11 -5 0 -10 -9 -10 -21 0 -13 -4 -18
-12 -13 -7 4 -10 4 -6 0 9 -10 -11 -66 -24 -66 -6 0 -4 -8 3 -17 12 -14 12
-16 0 -8 -11 6 -13 4 -8 -9 4 -10 3 -15 -3 -11 -6 3 -11 -4 -12 -17 -2 -43 -3
-47 -12 -55 -5 -4 -6 -3 -2 5 4 6 2 12 -3 12 -6 0 -11 -7 -11 -15 0 -35 -17
-68 -30 -60 -6 3 -7 -1 -4 -9 4 -10 1 -16 -7 -16 -7 0 -9 -3 -6 -7 4 -3 -1
-11 -10 -18 -13 -9 -13 -14 -3 -20 9 -6 11 -4 6 6 -6 10 -4 10 6 -1 7 -8 24
-15 38 -14 14 0 36 -6 49 -14 13 -8 20 -9 17 -3 -4 6 -2 11 3 11 6 0 11 -6 11
-12 0 -9 4 -8 10 2 8 12 10 12 10 1 0 -11 3 -11 17 0 9 8 14 9 10 3 -3 -6 0
-11 8 -11 8 0 12 4 9 9 -3 4 0 8 5 8 6 0 11 -6 11 -12 0 -9 4 -8 10 2 8 12 10
12 10 1 0 -11 3 -11 17 0 15 12 16 12 8 -1 -7 -13 -6 -13 7 -2 12 10 18 10 23
1 6 -8 10 -7 16 2 5 9 9 10 9 3 0 -7 7 -15 16 -18 10 -4 13 -2 8 7 -5 8 -2 8
9 -2 9 -7 23 -11 31 -8 8 3 16 1 19 -6 5 -16 57 41 57 64 0 9 6 20 13 22 9 4
8 6 -2 6 -11 1 -11 4 0 18 12 15 12 16 -1 8 -13 -8 -13 -7 -1 8 8 10 11 20 8
24 -4 3 -2 14 4 24 6 13 6 19 -1 19 -5 0 -10 5 -10 11 0 5 5 7 11 3 8 -4 8 0
0 15 -8 15 -9 21 -1 21 6 0 8 5 5 10 -3 6 -1 10 6 10 8 0 8 4 -1 15 -9 11 -9
15 -1 15 7 0 9 5 5 12 -11 17 -12 48 -2 42 4 -3 8 4 8 16 0 12 5 31 11 42 7
13 7 18 1 14 -6 -4 -10 2 -9 14 1 11 6 20 11 20 6 0 5 5 -2 12 -8 8 -8 17 -1
31 6 10 8 28 6 39 -4 15 -2 18 10 14 13 -5 14 -4 4 8 -7 9 -10 24 -6 37 5 16
4 20 -6 15 -8 -4 -7 -2 2 6 11 9 15 30 15 71 -1 38 3 57 11 57 6 0 15 4 18 10
3 6 -2 8 -12 5 -10 -3 -6 1 10 8 15 7 24 17 20 22 -5 5 0 3 10 -4 14 -11 20
-11 32 -1 12 10 15 10 15 -1 0 -11 2 -11 10 1 9 13 10 13 10 0 0 -13 1 -13 10
0 6 10 10 11 10 3 0 -7 9 -13 21 -13 11 0 17 -4 14 -10 -3 -5 0 -7 8 -4 8 3
21 -6 32 -22 16 -25 16 -27 1 -21 -14 6 -13 1 5 -25 13 -17 16 -28 8 -23 -12
7 -12 6 -1 -7 10 -13 10 -17 0 -21 -11 -4 -11 -6 0 -6 10 -1 10 -6 1 -23 -10
-18 -9 -20 7 -14 18 6 18 5 0 -9 -12 -9 -15 -15 -7 -15 11 0 11 -3 0 -17 -8
-9 -9 -14 -3 -10 7 4 14 -2 17 -13 3 -12 1 -18 -5 -14 -7 4 -7 0 0 -12 5 -11
9 -38 8 -62 -1 -24 3 -47 9 -52 6 -5 10 -23 7 -40 -2 -17 0 -30 6 -30 14 0 12
-40 -2 -59 -9 -12 -8 -13 3 -6 11 6 13 4 8 -8 -3 -9 1 -23 9 -32 12 -11 12
-15 2 -15 -10 0 -9 -3 2 -10 8 -5 10 -10 4 -10 -6 0 -11 -7 -11 -15 0 -8 5
-15 10 -15 5 0 7 -11 5 -24 -4 -18 -1 -23 9 -19 8 3 13 2 12 -3 -4 -24 2 -55
10 -50 5 3 9 0 8 -7 -1 -35 4 -48 15 -41 9 5 9 3 -1 -9 -11 -14 -11 -18 3 -23
9 -3 14 -9 12 -13 -14 -23 101 -42 116 -18 6 9 10 8 18 -3 5 -8 10 -10 10 -4
0 15 152 15 162 0 5 -7 8 -3 8 8 0 11 3 17 6 13 10 -10 30 16 31 40 1 13 -3
23 -9 23 -5 0 -8 6 -5 14 3 8 1 17 -6 20 -9 3 -8 7 2 14 9 7 10 12 2 16 -6 4
-11 16 -11 27 0 10 -4 19 -10 19 -5 0 -6 7 -3 17 4 11 3 14 -5 9 -8 -5 -12 0
-12 14 0 12 -9 33 -20 48 -13 15 -17 29 -11 35 5 5 4 18 -4 33 -7 13 -12 34
-11 47 1 12 -2 25 -6 28 -4 3 -9 24 -10 47 -1 22 -5 39 -10 36 -7 -4 -13 34
-9 59 0 4 -4 7 -10 7 -8 0 -8 4 -1 12 12 16 6 60 -11 70 -6 4 -7 8 -2 8 6 0 5
4 -2 8 -7 4 -14 27 -15 50 -2 23 -5 42 -8 42 -7 0 -9 15 -15 100 -4 59 -11
105 -15 105 -1 0 -3 12 -4 27 -1 14 1 25 5 22 3 -2 14 5 23 15 11 13 14 21 7
26 -8 4 -8 12 0 27 8 15 8 19 0 13 -13 -7 -9 35 5 56 5 8 3 9 -5 5 -15 -10
-11 25 4 36 6 5 5 8 -3 8 -9 0 -10 5 -3 18 7 13 6 23 -1 30 -9 9 -9 15 0 24 7
7 12 27 12 46 0 24 4 31 13 26 6 -4 9 -4 5 1 -4 4 -2 15 5 23 8 10 8 13 1 9
-7 -4 -15 0 -18 9 -3 8 -2 12 3 9 5 -3 9 7 9 22 -1 50 2 64 12 58 6 -3 10 -1
10 4 0 6 -6 11 -12 11 -9 0 -8 4 2 10 13 9 13 10 0 10 -13 0 -13 1 0 10 12 8
12 10 1 10 -11 0 -11 3 0 17 12 15 12 16 -1 8 -13 -7 -13 -6 -2 7 10 13 10 17
0 21 -10 4 -10 6 0 6 6 1 12 8 12 17 0 9 5 12 13 8 9 -6 9 -4 -1 8 -8 10 -9
19 -3 22 5 3 8 17 6 31 -1 14 3 25 9 25 6 0 4 5 -4 10 -11 7 -11 10 -2 10 7 0
10 5 7 10 -3 6 0 10 7 10 9 0 9 3 -2 10 -12 8 -12 10 -1 10 8 0 11 3 8 7 -4 3
1 12 11 20 9 8 11 12 5 8 -9 -4 -13 1 -13 14 0 12 -5 21 -11 21 -5 0 -8 4 -5
8 3 5 -1 9 -9 9 -8 0 -11 -5 -8 -11 4 -6 -1 -5 -10 3 -9 7 -28 11 -42 9 -14
-3 -28 -1 -31 4 -3 4 -10 6 -15 3 -5 -4 -9 -1 -9 5 0 7 -6 10 -12 7 -7 -3 -21
-8 -30 -12 -11 -4 -18 -3 -18 5 0 6 5 8 12 4 7 -4 8 -3 4 5 -5 8 -12 9 -20 2
-7 -6 -18 -6 -25 -1 -8 4 -21 6 -29 2 -11 -4 -13 -1 -8 9 5 9 3 8 -6 -2 -7 -9
-19 -14 -27 -11 -8 3 -11 0 -7 -6 3 -5 -1 -13 -9 -16 -13 -5 -14 -10 -4 -27 6
-13 7 -19 1 -15 -12 7 -26 -29 -18 -43 3 -5 -2 -12 -11 -15 -15 -6 -15 -8 -3
-16 10 -7 11 -10 3 -10 -7 0 -13 -10 -13 -23 0 -13 -6 -29 -13 -36 -10 -11 -9
-12 2 -6 10 6 12 4 5 -6 -4 -8 -9 -25 -10 -37 0 -13 -7 -28 -15 -33 -12 -7
-12 -9 0 -9 11 0 11 -3 0 -17 -12 -15 -12 -16 1 -8 13 7 13 6 0 -11 -9 -10
-15 -32 -14 -49 1 -16 -1 -34 -5 -40 -3 -5 -6 -40 -7 -78 -1 -54 -5 -70 -20
-82 -18 -14 -18 -14 0 -15 17 0 18 -1 1 -26 -9 -15 -12 -24 -7 -20 15 9 22 -7
12 -24 -5 -9 -5 -19 1 -26 7 -8 6 -15 -2 -20 -8 -5 -9 -3 -4 6 5 9 4 11 -4 6
-9 -6 -9 -11 0 -22 9 -11 9 -14 -1 -14 -8 0 -22 -8 -33 -17 -11 -10 -17 -13
-14 -6 4 6 3 14 -3 18 -5 3 -10 0 -10 -7 0 -10 -2 -10 -9 1 -6 9 -24 14 -47
13 -47 -2 -71 23 -68 70 1 18 -3 39 -9 47 -9 11 -9 13 0 8 15 -9 14 32 -1 52
-8 11 -8 13 1 8 15 -9 14 32 -1 52 -8 11 -8 13 0 8 7 -4 12 2 12 18 0 14 -6
25 -12 25 -7 0 -7 3 -1 8 15 10 18 35 4 26 -8 -5 -10 -1 -7 13 3 11 1 28 -4
37 -6 11 -5 16 4 16 9 0 9 3 -2 10 -12 8 -12 10 -1 10 10 0 11 3 2 14 -8 9 -8
15 -2 18 7 2 6 13 -3 30 -9 17 -10 30 -4 36 6 6 6 12 -1 16 -7 5 -7 15 0 32 8
23 7 25 -8 20 -15 -6 -14 -4 2 14 14 16 16 21 5 18 -11 -2 -14 5 -13 25 1 15
-3 27 -9 27 -7 0 -6 5 1 14 8 10 9 16 1 21 -5 3 -10 13 -10 21 0 19 -25 46
-34 37 -12 -12 -36 -12 -36 0 0 8 -3 7 -9 -2 -6 -9 -10 -10 -16 -2 -5 9 -11 9
-23 -1 -12 -10 -16 -10 -19 0 -3 6 -10 9 -16 5 -20 -12 -41 -12 -56 0 -12 10
-13 9 -6 -3 8 -13 7 -13 -8 -1 -13 10 -17 10 -17 1z m830 -834 c0 -3 -4 -8
-10 -11 -5 -3 -10 -1 -10 4 0 6 5 11 10 11 6 0 10 -2 10 -4z"/>
<path d="M2275 399 c-4 -6 -4 -13 -1 -16 3 -4 6 -1 6 6 0 7 5 9 12 5 7 -4 8
-3 4 4 -9 15 -13 15 -21 1z"/>
</g>
</svg>
